<mxfile host="app.diagrams.net" modified="2024-04-20T18:00:00.842Z" agent="Mozilla/5.0 (Macintosh; Intel Mac OS X 10_15_7) AppleWebKit/537.36 (KHTML, like Gecko) Chrome/124.0.0.0 Safari/537.36" etag="_baBOP63VcLsohQrBcb9" version="24.2.5" type="github" pages="18">
  <diagram name="1" id="ruXkZ6IsF1dIokIwz5nn">
    <mxGraphModel dx="995" dy="471" grid="1" gridSize="10" guides="1" tooltips="1" connect="1" arrows="1" fold="1" page="1" pageScale="1" pageWidth="850" pageHeight="1100" math="0" shadow="0">
      <root>
        <mxCell id="0" />
        <mxCell id="1" parent="0" />
        <mxCell id="znbGsqONTEyzQTN4cpGq-1" value="" style="group" vertex="1" connectable="0" parent="1">
          <mxGeometry x="90" y="80" width="150" height="40" as="geometry" />
        </mxCell>
        <mxCell id="znbGsqONTEyzQTN4cpGq-2" value="" style="rounded=0;whiteSpace=wrap;html=1;" vertex="1" parent="znbGsqONTEyzQTN4cpGq-1">
          <mxGeometry x="30" width="120" height="40" as="geometry" />
        </mxCell>
        <mxCell id="znbGsqONTEyzQTN4cpGq-3" value="0" style="text;html=1;align=center;verticalAlign=middle;resizable=0;points=[];autosize=1;strokeColor=none;fillColor=none;" vertex="1" parent="znbGsqONTEyzQTN4cpGq-1">
          <mxGeometry y="5" width="30" height="30" as="geometry" />
        </mxCell>
        <mxCell id="znbGsqONTEyzQTN4cpGq-4" value="" style="group" vertex="1" connectable="0" parent="1">
          <mxGeometry x="90" y="140" width="150" height="40" as="geometry" />
        </mxCell>
        <mxCell id="znbGsqONTEyzQTN4cpGq-5" value="" style="rounded=0;whiteSpace=wrap;html=1;" vertex="1" parent="znbGsqONTEyzQTN4cpGq-4">
          <mxGeometry x="30" width="120" height="40" as="geometry" />
        </mxCell>
        <mxCell id="znbGsqONTEyzQTN4cpGq-6" value="1" style="text;html=1;align=center;verticalAlign=middle;resizable=0;points=[];autosize=1;strokeColor=none;fillColor=none;" vertex="1" parent="znbGsqONTEyzQTN4cpGq-4">
          <mxGeometry y="5" width="30" height="30" as="geometry" />
        </mxCell>
        <mxCell id="znbGsqONTEyzQTN4cpGq-7" value="" style="group" vertex="1" connectable="0" parent="1">
          <mxGeometry x="90" y="200" width="150" height="40" as="geometry" />
        </mxCell>
        <mxCell id="znbGsqONTEyzQTN4cpGq-8" value="" style="rounded=0;whiteSpace=wrap;html=1;" vertex="1" parent="znbGsqONTEyzQTN4cpGq-7">
          <mxGeometry x="30" width="120" height="40" as="geometry" />
        </mxCell>
        <mxCell id="znbGsqONTEyzQTN4cpGq-9" value="2" style="text;html=1;align=center;verticalAlign=middle;resizable=0;points=[];autosize=1;strokeColor=none;fillColor=none;" vertex="1" parent="znbGsqONTEyzQTN4cpGq-7">
          <mxGeometry y="5" width="30" height="30" as="geometry" />
        </mxCell>
        <mxCell id="znbGsqONTEyzQTN4cpGq-10" value="" style="group" vertex="1" connectable="0" parent="1">
          <mxGeometry x="90" y="320" width="150" height="40" as="geometry" />
        </mxCell>
        <mxCell id="znbGsqONTEyzQTN4cpGq-11" value="" style="rounded=0;whiteSpace=wrap;html=1;" vertex="1" parent="znbGsqONTEyzQTN4cpGq-10">
          <mxGeometry x="30" width="120" height="40" as="geometry" />
        </mxCell>
        <mxCell id="znbGsqONTEyzQTN4cpGq-12" value="4" style="text;html=1;align=center;verticalAlign=middle;resizable=0;points=[];autosize=1;strokeColor=none;fillColor=none;" vertex="1" parent="znbGsqONTEyzQTN4cpGq-10">
          <mxGeometry y="5" width="30" height="30" as="geometry" />
        </mxCell>
        <mxCell id="znbGsqONTEyzQTN4cpGq-13" value="" style="group" vertex="1" connectable="0" parent="1">
          <mxGeometry x="90" y="270" width="150" height="40" as="geometry" />
        </mxCell>
        <mxCell id="znbGsqONTEyzQTN4cpGq-14" value="" style="rounded=0;whiteSpace=wrap;html=1;" vertex="1" parent="znbGsqONTEyzQTN4cpGq-13">
          <mxGeometry x="30" y="-10" width="120" height="40" as="geometry" />
        </mxCell>
        <mxCell id="znbGsqONTEyzQTN4cpGq-15" value="3" style="text;html=1;align=center;verticalAlign=middle;resizable=0;points=[];autosize=1;strokeColor=none;fillColor=none;" vertex="1" parent="znbGsqONTEyzQTN4cpGq-13">
          <mxGeometry y="5" width="30" height="30" as="geometry" />
        </mxCell>
        <mxCell id="znbGsqONTEyzQTN4cpGq-16" value="" style="group" vertex="1" connectable="0" parent="1">
          <mxGeometry x="90" y="380" width="150" height="40" as="geometry" />
        </mxCell>
        <mxCell id="znbGsqONTEyzQTN4cpGq-17" value="" style="rounded=0;whiteSpace=wrap;html=1;" vertex="1" parent="znbGsqONTEyzQTN4cpGq-16">
          <mxGeometry x="30" width="120" height="40" as="geometry" />
        </mxCell>
        <mxCell id="znbGsqONTEyzQTN4cpGq-18" value="5" style="text;html=1;align=center;verticalAlign=middle;resizable=0;points=[];autosize=1;strokeColor=none;fillColor=none;" vertex="1" parent="znbGsqONTEyzQTN4cpGq-16">
          <mxGeometry y="5" width="30" height="30" as="geometry" />
        </mxCell>
        <mxCell id="znbGsqONTEyzQTN4cpGq-22" value="Tamanha = 6" style="text;html=1;align=center;verticalAlign=middle;resizable=0;points=[];autosize=1;strokeColor=none;fillColor=none;" vertex="1" parent="1">
          <mxGeometry x="35" y="10" width="90" height="30" as="geometry" />
        </mxCell>
        <mxCell id="znbGsqONTEyzQTN4cpGq-23" value="FÃ³rmula hash: %6 (mod)" style="text;html=1;align=center;verticalAlign=middle;resizable=0;points=[];autosize=1;strokeColor=none;fillColor=none;" vertex="1" parent="1">
          <mxGeometry x="160" y="10" width="160" height="30" as="geometry" />
        </mxCell>
      </root>
    </mxGraphModel>
  </diagram>
  <diagram name="2" id="35f4gPezqBdH7CMAheA8">
    <mxGraphModel dx="995" dy="471" grid="1" gridSize="10" guides="1" tooltips="1" connect="1" arrows="1" fold="1" page="1" pageScale="1" pageWidth="850" pageHeight="1100" math="0" shadow="0">
      <root>
        <mxCell id="jEiE_50zclWSANjYoY7J-0" />
        <mxCell id="jEiE_50zclWSANjYoY7J-1" parent="jEiE_50zclWSANjYoY7J-0" />
        <mxCell id="jEiE_50zclWSANjYoY7J-2" value="" style="group" vertex="1" connectable="0" parent="jEiE_50zclWSANjYoY7J-1">
          <mxGeometry x="90" y="80" width="150" height="40" as="geometry" />
        </mxCell>
        <mxCell id="jEiE_50zclWSANjYoY7J-3" value="" style="rounded=0;whiteSpace=wrap;html=1;" vertex="1" parent="jEiE_50zclWSANjYoY7J-2">
          <mxGeometry x="30" width="120" height="40" as="geometry" />
        </mxCell>
        <mxCell id="jEiE_50zclWSANjYoY7J-4" value="0" style="text;html=1;align=center;verticalAlign=middle;resizable=0;points=[];autosize=1;strokeColor=none;fillColor=none;" vertex="1" parent="jEiE_50zclWSANjYoY7J-2">
          <mxGeometry y="5" width="30" height="30" as="geometry" />
        </mxCell>
        <mxCell id="jEiE_50zclWSANjYoY7J-5" value="" style="group" vertex="1" connectable="0" parent="jEiE_50zclWSANjYoY7J-1">
          <mxGeometry x="90" y="140" width="150" height="40" as="geometry" />
        </mxCell>
        <mxCell id="jEiE_50zclWSANjYoY7J-6" value="13" style="rounded=0;whiteSpace=wrap;html=1;" vertex="1" parent="jEiE_50zclWSANjYoY7J-5">
          <mxGeometry x="30" width="120" height="40" as="geometry" />
        </mxCell>
        <mxCell id="jEiE_50zclWSANjYoY7J-7" value="1" style="text;html=1;align=center;verticalAlign=middle;resizable=0;points=[];autosize=1;strokeColor=none;fillColor=none;" vertex="1" parent="jEiE_50zclWSANjYoY7J-5">
          <mxGeometry y="5" width="30" height="30" as="geometry" />
        </mxCell>
        <mxCell id="jEiE_50zclWSANjYoY7J-8" value="" style="group" vertex="1" connectable="0" parent="jEiE_50zclWSANjYoY7J-1">
          <mxGeometry x="90" y="200" width="150" height="40" as="geometry" />
        </mxCell>
        <mxCell id="jEiE_50zclWSANjYoY7J-9" value="" style="rounded=0;whiteSpace=wrap;html=1;" vertex="1" parent="jEiE_50zclWSANjYoY7J-8">
          <mxGeometry x="30" width="120" height="40" as="geometry" />
        </mxCell>
        <mxCell id="jEiE_50zclWSANjYoY7J-10" value="2" style="text;html=1;align=center;verticalAlign=middle;resizable=0;points=[];autosize=1;strokeColor=none;fillColor=none;" vertex="1" parent="jEiE_50zclWSANjYoY7J-8">
          <mxGeometry y="5" width="30" height="30" as="geometry" />
        </mxCell>
        <mxCell id="jEiE_50zclWSANjYoY7J-11" value="" style="group" vertex="1" connectable="0" parent="jEiE_50zclWSANjYoY7J-1">
          <mxGeometry x="90" y="320" width="150" height="40" as="geometry" />
        </mxCell>
        <mxCell id="jEiE_50zclWSANjYoY7J-12" value="" style="rounded=0;whiteSpace=wrap;html=1;" vertex="1" parent="jEiE_50zclWSANjYoY7J-11">
          <mxGeometry x="30" width="120" height="40" as="geometry" />
        </mxCell>
        <mxCell id="jEiE_50zclWSANjYoY7J-13" value="4" style="text;html=1;align=center;verticalAlign=middle;resizable=0;points=[];autosize=1;strokeColor=none;fillColor=none;" vertex="1" parent="jEiE_50zclWSANjYoY7J-11">
          <mxGeometry y="5" width="30" height="30" as="geometry" />
        </mxCell>
        <mxCell id="jEiE_50zclWSANjYoY7J-14" value="" style="group" vertex="1" connectable="0" parent="jEiE_50zclWSANjYoY7J-1">
          <mxGeometry x="90" y="270" width="150" height="40" as="geometry" />
        </mxCell>
        <mxCell id="jEiE_50zclWSANjYoY7J-15" value="" style="rounded=0;whiteSpace=wrap;html=1;" vertex="1" parent="jEiE_50zclWSANjYoY7J-14">
          <mxGeometry x="30" y="-10" width="120" height="40" as="geometry" />
        </mxCell>
        <mxCell id="jEiE_50zclWSANjYoY7J-16" value="3" style="text;html=1;align=center;verticalAlign=middle;resizable=0;points=[];autosize=1;strokeColor=none;fillColor=none;" vertex="1" parent="jEiE_50zclWSANjYoY7J-14">
          <mxGeometry y="5" width="30" height="30" as="geometry" />
        </mxCell>
        <mxCell id="jEiE_50zclWSANjYoY7J-17" value="" style="group" vertex="1" connectable="0" parent="jEiE_50zclWSANjYoY7J-1">
          <mxGeometry x="90" y="380" width="150" height="40" as="geometry" />
        </mxCell>
        <mxCell id="jEiE_50zclWSANjYoY7J-18" value="" style="rounded=0;whiteSpace=wrap;html=1;" vertex="1" parent="jEiE_50zclWSANjYoY7J-17">
          <mxGeometry x="30" width="120" height="40" as="geometry" />
        </mxCell>
        <mxCell id="jEiE_50zclWSANjYoY7J-19" value="5" style="text;html=1;align=center;verticalAlign=middle;resizable=0;points=[];autosize=1;strokeColor=none;fillColor=none;" vertex="1" parent="jEiE_50zclWSANjYoY7J-17">
          <mxGeometry y="5" width="30" height="30" as="geometry" />
        </mxCell>
        <mxCell id="jEiE_50zclWSANjYoY7J-20" value="Tamanha = 6" style="text;html=1;align=center;verticalAlign=middle;resizable=0;points=[];autosize=1;strokeColor=none;fillColor=none;" vertex="1" parent="jEiE_50zclWSANjYoY7J-1">
          <mxGeometry x="35" y="10" width="90" height="30" as="geometry" />
        </mxCell>
        <mxCell id="jEiE_50zclWSANjYoY7J-21" value="FÃ³rmula hash: %6 (mod)" style="text;html=1;align=center;verticalAlign=middle;resizable=0;points=[];autosize=1;strokeColor=none;fillColor=none;" vertex="1" parent="jEiE_50zclWSANjYoY7J-1">
          <mxGeometry x="160" y="10" width="160" height="30" as="geometry" />
        </mxCell>
        <mxCell id="soa0pJHgLhPslGKF0Ibc-0" value="InserÃ§Ã£o" style="text;html=1;align=center;verticalAlign=middle;resizable=0;points=[];autosize=1;strokeColor=none;fillColor=none;" vertex="1" parent="jEiE_50zclWSANjYoY7J-1">
          <mxGeometry x="350" y="10" width="70" height="30" as="geometry" />
        </mxCell>
      </root>
    </mxGraphModel>
  </diagram>
  <diagram name="3" id="A2EC9Q1JuhMsL8vN11od">
    <mxGraphModel dx="995" dy="592" grid="1" gridSize="10" guides="1" tooltips="1" connect="1" arrows="1" fold="1" page="1" pageScale="1" pageWidth="850" pageHeight="1100" math="0" shadow="0">
      <root>
        <mxCell id="qdd3Hb_GRnOsf4YWv-0M-0" />
        <mxCell id="qdd3Hb_GRnOsf4YWv-0M-1" parent="qdd3Hb_GRnOsf4YWv-0M-0" />
        <mxCell id="qdd3Hb_GRnOsf4YWv-0M-2" value="" style="group" vertex="1" connectable="0" parent="qdd3Hb_GRnOsf4YWv-0M-1">
          <mxGeometry x="90" y="80" width="150" height="40" as="geometry" />
        </mxCell>
        <mxCell id="qdd3Hb_GRnOsf4YWv-0M-3" value="" style="rounded=0;whiteSpace=wrap;html=1;" vertex="1" parent="qdd3Hb_GRnOsf4YWv-0M-2">
          <mxGeometry x="30" width="120" height="40" as="geometry" />
        </mxCell>
        <mxCell id="qdd3Hb_GRnOsf4YWv-0M-4" value="0" style="text;html=1;align=center;verticalAlign=middle;resizable=0;points=[];autosize=1;strokeColor=none;fillColor=none;" vertex="1" parent="qdd3Hb_GRnOsf4YWv-0M-2">
          <mxGeometry y="5" width="30" height="30" as="geometry" />
        </mxCell>
        <mxCell id="qdd3Hb_GRnOsf4YWv-0M-5" value="" style="group" vertex="1" connectable="0" parent="qdd3Hb_GRnOsf4YWv-0M-1">
          <mxGeometry x="90" y="140" width="150" height="40" as="geometry" />
        </mxCell>
        <mxCell id="qdd3Hb_GRnOsf4YWv-0M-6" value="13" style="rounded=0;whiteSpace=wrap;html=1;" vertex="1" parent="qdd3Hb_GRnOsf4YWv-0M-5">
          <mxGeometry x="30" width="120" height="40" as="geometry" />
        </mxCell>
        <mxCell id="qdd3Hb_GRnOsf4YWv-0M-7" value="1" style="text;html=1;align=center;verticalAlign=middle;resizable=0;points=[];autosize=1;strokeColor=none;fillColor=none;" vertex="1" parent="qdd3Hb_GRnOsf4YWv-0M-5">
          <mxGeometry y="5" width="30" height="30" as="geometry" />
        </mxCell>
        <mxCell id="qdd3Hb_GRnOsf4YWv-0M-8" value="" style="group" vertex="1" connectable="0" parent="qdd3Hb_GRnOsf4YWv-0M-1">
          <mxGeometry x="90" y="200" width="150" height="40" as="geometry" />
        </mxCell>
        <mxCell id="qdd3Hb_GRnOsf4YWv-0M-9" value="" style="rounded=0;whiteSpace=wrap;html=1;" vertex="1" parent="qdd3Hb_GRnOsf4YWv-0M-8">
          <mxGeometry x="30" width="120" height="40" as="geometry" />
        </mxCell>
        <mxCell id="qdd3Hb_GRnOsf4YWv-0M-10" value="2" style="text;html=1;align=center;verticalAlign=middle;resizable=0;points=[];autosize=1;strokeColor=none;fillColor=none;" vertex="1" parent="qdd3Hb_GRnOsf4YWv-0M-8">
          <mxGeometry y="5" width="30" height="30" as="geometry" />
        </mxCell>
        <mxCell id="qdd3Hb_GRnOsf4YWv-0M-11" value="" style="group" vertex="1" connectable="0" parent="qdd3Hb_GRnOsf4YWv-0M-1">
          <mxGeometry x="90" y="320" width="150" height="40" as="geometry" />
        </mxCell>
        <mxCell id="qdd3Hb_GRnOsf4YWv-0M-12" value="" style="rounded=0;whiteSpace=wrap;html=1;" vertex="1" parent="qdd3Hb_GRnOsf4YWv-0M-11">
          <mxGeometry x="30" width="120" height="40" as="geometry" />
        </mxCell>
        <mxCell id="qdd3Hb_GRnOsf4YWv-0M-13" value="4" style="text;html=1;align=center;verticalAlign=middle;resizable=0;points=[];autosize=1;strokeColor=none;fillColor=none;" vertex="1" parent="qdd3Hb_GRnOsf4YWv-0M-11">
          <mxGeometry y="5" width="30" height="30" as="geometry" />
        </mxCell>
        <mxCell id="qdd3Hb_GRnOsf4YWv-0M-14" value="" style="group" vertex="1" connectable="0" parent="qdd3Hb_GRnOsf4YWv-0M-1">
          <mxGeometry x="90" y="270" width="150" height="40" as="geometry" />
        </mxCell>
        <mxCell id="qdd3Hb_GRnOsf4YWv-0M-15" value="" style="rounded=0;whiteSpace=wrap;html=1;" vertex="1" parent="qdd3Hb_GRnOsf4YWv-0M-14">
          <mxGeometry x="30" y="-10" width="120" height="40" as="geometry" />
        </mxCell>
        <mxCell id="qdd3Hb_GRnOsf4YWv-0M-16" value="3" style="text;html=1;align=center;verticalAlign=middle;resizable=0;points=[];autosize=1;strokeColor=none;fillColor=none;" vertex="1" parent="qdd3Hb_GRnOsf4YWv-0M-14">
          <mxGeometry y="5" width="30" height="30" as="geometry" />
        </mxCell>
        <mxCell id="qdd3Hb_GRnOsf4YWv-0M-17" value="" style="group" vertex="1" connectable="0" parent="qdd3Hb_GRnOsf4YWv-0M-1">
          <mxGeometry x="90" y="380" width="150" height="40" as="geometry" />
        </mxCell>
        <mxCell id="qdd3Hb_GRnOsf4YWv-0M-18" value="11" style="rounded=0;whiteSpace=wrap;html=1;" vertex="1" parent="qdd3Hb_GRnOsf4YWv-0M-17">
          <mxGeometry x="30" width="120" height="40" as="geometry" />
        </mxCell>
        <mxCell id="qdd3Hb_GRnOsf4YWv-0M-19" value="5" style="text;html=1;align=center;verticalAlign=middle;resizable=0;points=[];autosize=1;strokeColor=none;fillColor=none;" vertex="1" parent="qdd3Hb_GRnOsf4YWv-0M-17">
          <mxGeometry y="5" width="30" height="30" as="geometry" />
        </mxCell>
        <mxCell id="qdd3Hb_GRnOsf4YWv-0M-20" value="Tamanha = 6" style="text;html=1;align=center;verticalAlign=middle;resizable=0;points=[];autosize=1;strokeColor=none;fillColor=none;" vertex="1" parent="qdd3Hb_GRnOsf4YWv-0M-1">
          <mxGeometry x="35" y="10" width="90" height="30" as="geometry" />
        </mxCell>
        <mxCell id="qdd3Hb_GRnOsf4YWv-0M-21" value="FÃ³rmula hash: %6 (mod)" style="text;html=1;align=center;verticalAlign=middle;resizable=0;points=[];autosize=1;strokeColor=none;fillColor=none;" vertex="1" parent="qdd3Hb_GRnOsf4YWv-0M-1">
          <mxGeometry x="160" y="10" width="160" height="30" as="geometry" />
        </mxCell>
      </root>
    </mxGraphModel>
  </diagram>
  <diagram name="4" id="jECH2PoqOZqd4FSsEVbb">
    <mxGraphModel dx="995" dy="592" grid="1" gridSize="10" guides="1" tooltips="1" connect="1" arrows="1" fold="1" page="1" pageScale="1" pageWidth="850" pageHeight="1100" math="0" shadow="0">
      <root>
        <mxCell id="3KcH0JGSH1h161kNB4X--0" />
        <mxCell id="3KcH0JGSH1h161kNB4X--1" parent="3KcH0JGSH1h161kNB4X--0" />
        <mxCell id="3KcH0JGSH1h161kNB4X--2" value="" style="group" vertex="1" connectable="0" parent="3KcH0JGSH1h161kNB4X--1">
          <mxGeometry x="90" y="80" width="150" height="40" as="geometry" />
        </mxCell>
        <mxCell id="3KcH0JGSH1h161kNB4X--3" value="" style="rounded=0;whiteSpace=wrap;html=1;" vertex="1" parent="3KcH0JGSH1h161kNB4X--2">
          <mxGeometry x="30" width="120" height="40" as="geometry" />
        </mxCell>
        <mxCell id="3KcH0JGSH1h161kNB4X--4" value="0" style="text;html=1;align=center;verticalAlign=middle;resizable=0;points=[];autosize=1;strokeColor=none;fillColor=none;" vertex="1" parent="3KcH0JGSH1h161kNB4X--2">
          <mxGeometry y="5" width="30" height="30" as="geometry" />
        </mxCell>
        <mxCell id="3KcH0JGSH1h161kNB4X--5" value="" style="group" vertex="1" connectable="0" parent="3KcH0JGSH1h161kNB4X--1">
          <mxGeometry x="90" y="140" width="150" height="40" as="geometry" />
        </mxCell>
        <mxCell id="3KcH0JGSH1h161kNB4X--6" value="13" style="rounded=0;whiteSpace=wrap;html=1;" vertex="1" parent="3KcH0JGSH1h161kNB4X--5">
          <mxGeometry x="30" width="120" height="40" as="geometry" />
        </mxCell>
        <mxCell id="3KcH0JGSH1h161kNB4X--7" value="1" style="text;html=1;align=center;verticalAlign=middle;resizable=0;points=[];autosize=1;strokeColor=none;fillColor=none;" vertex="1" parent="3KcH0JGSH1h161kNB4X--5">
          <mxGeometry y="5" width="30" height="30" as="geometry" />
        </mxCell>
        <mxCell id="3KcH0JGSH1h161kNB4X--8" value="" style="group" vertex="1" connectable="0" parent="3KcH0JGSH1h161kNB4X--1">
          <mxGeometry x="90" y="200" width="150" height="40" as="geometry" />
        </mxCell>
        <mxCell id="3KcH0JGSH1h161kNB4X--9" value="" style="rounded=0;whiteSpace=wrap;html=1;" vertex="1" parent="3KcH0JGSH1h161kNB4X--8">
          <mxGeometry x="30" width="120" height="40" as="geometry" />
        </mxCell>
        <mxCell id="3KcH0JGSH1h161kNB4X--10" value="2" style="text;html=1;align=center;verticalAlign=middle;resizable=0;points=[];autosize=1;strokeColor=none;fillColor=none;" vertex="1" parent="3KcH0JGSH1h161kNB4X--8">
          <mxGeometry y="5" width="30" height="30" as="geometry" />
        </mxCell>
        <mxCell id="3KcH0JGSH1h161kNB4X--11" value="" style="group" vertex="1" connectable="0" parent="3KcH0JGSH1h161kNB4X--1">
          <mxGeometry x="90" y="320" width="150" height="40" as="geometry" />
        </mxCell>
        <mxCell id="3KcH0JGSH1h161kNB4X--12" value="" style="rounded=0;whiteSpace=wrap;html=1;" vertex="1" parent="3KcH0JGSH1h161kNB4X--11">
          <mxGeometry x="30" width="120" height="40" as="geometry" />
        </mxCell>
        <mxCell id="3KcH0JGSH1h161kNB4X--13" value="4" style="text;html=1;align=center;verticalAlign=middle;resizable=0;points=[];autosize=1;strokeColor=none;fillColor=none;" vertex="1" parent="3KcH0JGSH1h161kNB4X--11">
          <mxGeometry y="5" width="30" height="30" as="geometry" />
        </mxCell>
        <mxCell id="3KcH0JGSH1h161kNB4X--14" value="" style="group" vertex="1" connectable="0" parent="3KcH0JGSH1h161kNB4X--1">
          <mxGeometry x="90" y="270" width="150" height="40" as="geometry" />
        </mxCell>
        <mxCell id="3KcH0JGSH1h161kNB4X--15" value="21" style="rounded=0;whiteSpace=wrap;html=1;" vertex="1" parent="3KcH0JGSH1h161kNB4X--14">
          <mxGeometry x="30" y="-10" width="120" height="40" as="geometry" />
        </mxCell>
        <mxCell id="3KcH0JGSH1h161kNB4X--16" value="3" style="text;html=1;align=center;verticalAlign=middle;resizable=0;points=[];autosize=1;strokeColor=none;fillColor=none;" vertex="1" parent="3KcH0JGSH1h161kNB4X--14">
          <mxGeometry y="5" width="30" height="30" as="geometry" />
        </mxCell>
        <mxCell id="3KcH0JGSH1h161kNB4X--17" value="" style="group" vertex="1" connectable="0" parent="3KcH0JGSH1h161kNB4X--1">
          <mxGeometry x="90" y="380" width="150" height="40" as="geometry" />
        </mxCell>
        <mxCell id="3KcH0JGSH1h161kNB4X--18" value="11" style="rounded=0;whiteSpace=wrap;html=1;" vertex="1" parent="3KcH0JGSH1h161kNB4X--17">
          <mxGeometry x="30" width="120" height="40" as="geometry" />
        </mxCell>
        <mxCell id="3KcH0JGSH1h161kNB4X--19" value="5" style="text;html=1;align=center;verticalAlign=middle;resizable=0;points=[];autosize=1;strokeColor=none;fillColor=none;" vertex="1" parent="3KcH0JGSH1h161kNB4X--17">
          <mxGeometry y="5" width="30" height="30" as="geometry" />
        </mxCell>
        <mxCell id="3KcH0JGSH1h161kNB4X--20" value="Tamanha = 6" style="text;html=1;align=center;verticalAlign=middle;resizable=0;points=[];autosize=1;strokeColor=none;fillColor=none;" vertex="1" parent="3KcH0JGSH1h161kNB4X--1">
          <mxGeometry x="35" y="10" width="90" height="30" as="geometry" />
        </mxCell>
        <mxCell id="3KcH0JGSH1h161kNB4X--21" value="FÃ³rmula hash: %6 (mod)" style="text;html=1;align=center;verticalAlign=middle;resizable=0;points=[];autosize=1;strokeColor=none;fillColor=none;" vertex="1" parent="3KcH0JGSH1h161kNB4X--1">
          <mxGeometry x="160" y="10" width="160" height="30" as="geometry" />
        </mxCell>
      </root>
    </mxGraphModel>
  </diagram>
  <diagram name="5" id="yPHwDtWbocM1avhhzdSK">
    <mxGraphModel dx="995" dy="471" grid="1" gridSize="10" guides="1" tooltips="1" connect="1" arrows="1" fold="1" page="1" pageScale="1" pageWidth="850" pageHeight="1100" math="0" shadow="0">
      <root>
        <mxCell id="e0zLNAE6TxSwQrqriLQ9-0" />
        <mxCell id="e0zLNAE6TxSwQrqriLQ9-1" parent="e0zLNAE6TxSwQrqriLQ9-0" />
        <mxCell id="e0zLNAE6TxSwQrqriLQ9-2" value="" style="group" vertex="1" connectable="0" parent="e0zLNAE6TxSwQrqriLQ9-1">
          <mxGeometry x="90" y="80" width="150" height="40" as="geometry" />
        </mxCell>
        <mxCell id="e0zLNAE6TxSwQrqriLQ9-3" value="" style="rounded=0;whiteSpace=wrap;html=1;" vertex="1" parent="e0zLNAE6TxSwQrqriLQ9-2">
          <mxGeometry x="30" width="120" height="40" as="geometry" />
        </mxCell>
        <mxCell id="e0zLNAE6TxSwQrqriLQ9-4" value="0" style="text;html=1;align=center;verticalAlign=middle;resizable=0;points=[];autosize=1;strokeColor=none;fillColor=none;" vertex="1" parent="e0zLNAE6TxSwQrqriLQ9-2">
          <mxGeometry y="5" width="30" height="30" as="geometry" />
        </mxCell>
        <mxCell id="e0zLNAE6TxSwQrqriLQ9-5" value="" style="group" vertex="1" connectable="0" parent="e0zLNAE6TxSwQrqriLQ9-1">
          <mxGeometry x="90" y="140" width="150" height="40" as="geometry" />
        </mxCell>
        <mxCell id="e0zLNAE6TxSwQrqriLQ9-6" value="7" style="rounded=0;whiteSpace=wrap;html=1;" vertex="1" parent="e0zLNAE6TxSwQrqriLQ9-5">
          <mxGeometry x="30" width="120" height="40" as="geometry" />
        </mxCell>
        <mxCell id="e0zLNAE6TxSwQrqriLQ9-7" value="1" style="text;html=1;align=center;verticalAlign=middle;resizable=0;points=[];autosize=1;strokeColor=none;fillColor=none;" vertex="1" parent="e0zLNAE6TxSwQrqriLQ9-5">
          <mxGeometry y="5" width="30" height="30" as="geometry" />
        </mxCell>
        <mxCell id="e0zLNAE6TxSwQrqriLQ9-8" value="" style="group" vertex="1" connectable="0" parent="e0zLNAE6TxSwQrqriLQ9-1">
          <mxGeometry x="90" y="200" width="150" height="40" as="geometry" />
        </mxCell>
        <mxCell id="e0zLNAE6TxSwQrqriLQ9-9" value="" style="rounded=0;whiteSpace=wrap;html=1;" vertex="1" parent="e0zLNAE6TxSwQrqriLQ9-8">
          <mxGeometry x="30" width="120" height="40" as="geometry" />
        </mxCell>
        <mxCell id="e0zLNAE6TxSwQrqriLQ9-10" value="2" style="text;html=1;align=center;verticalAlign=middle;resizable=0;points=[];autosize=1;strokeColor=none;fillColor=none;" vertex="1" parent="e0zLNAE6TxSwQrqriLQ9-8">
          <mxGeometry y="5" width="30" height="30" as="geometry" />
        </mxCell>
        <mxCell id="e0zLNAE6TxSwQrqriLQ9-11" value="" style="group" vertex="1" connectable="0" parent="e0zLNAE6TxSwQrqriLQ9-1">
          <mxGeometry x="90" y="320" width="150" height="40" as="geometry" />
        </mxCell>
        <mxCell id="e0zLNAE6TxSwQrqriLQ9-12" value="" style="rounded=0;whiteSpace=wrap;html=1;" vertex="1" parent="e0zLNAE6TxSwQrqriLQ9-11">
          <mxGeometry x="30" width="120" height="40" as="geometry" />
        </mxCell>
        <mxCell id="e0zLNAE6TxSwQrqriLQ9-13" value="4" style="text;html=1;align=center;verticalAlign=middle;resizable=0;points=[];autosize=1;strokeColor=none;fillColor=none;" vertex="1" parent="e0zLNAE6TxSwQrqriLQ9-11">
          <mxGeometry y="5" width="30" height="30" as="geometry" />
        </mxCell>
        <mxCell id="e0zLNAE6TxSwQrqriLQ9-14" value="" style="group" vertex="1" connectable="0" parent="e0zLNAE6TxSwQrqriLQ9-1">
          <mxGeometry x="90" y="270" width="150" height="40" as="geometry" />
        </mxCell>
        <mxCell id="e0zLNAE6TxSwQrqriLQ9-15" value="21" style="rounded=0;whiteSpace=wrap;html=1;" vertex="1" parent="e0zLNAE6TxSwQrqriLQ9-14">
          <mxGeometry x="30" y="-10" width="120" height="40" as="geometry" />
        </mxCell>
        <mxCell id="e0zLNAE6TxSwQrqriLQ9-16" value="3" style="text;html=1;align=center;verticalAlign=middle;resizable=0;points=[];autosize=1;strokeColor=none;fillColor=none;" vertex="1" parent="e0zLNAE6TxSwQrqriLQ9-14">
          <mxGeometry y="5" width="30" height="30" as="geometry" />
        </mxCell>
        <mxCell id="e0zLNAE6TxSwQrqriLQ9-17" value="" style="group" vertex="1" connectable="0" parent="e0zLNAE6TxSwQrqriLQ9-1">
          <mxGeometry x="90" y="380" width="150" height="40" as="geometry" />
        </mxCell>
        <mxCell id="e0zLNAE6TxSwQrqriLQ9-18" value="11" style="rounded=0;whiteSpace=wrap;html=1;" vertex="1" parent="e0zLNAE6TxSwQrqriLQ9-17">
          <mxGeometry x="30" width="120" height="40" as="geometry" />
        </mxCell>
        <mxCell id="e0zLNAE6TxSwQrqriLQ9-19" value="5" style="text;html=1;align=center;verticalAlign=middle;resizable=0;points=[];autosize=1;strokeColor=none;fillColor=none;" vertex="1" parent="e0zLNAE6TxSwQrqriLQ9-17">
          <mxGeometry y="5" width="30" height="30" as="geometry" />
        </mxCell>
        <mxCell id="e0zLNAE6TxSwQrqriLQ9-20" value="Tamanha = 6" style="text;html=1;align=center;verticalAlign=middle;resizable=0;points=[];autosize=1;strokeColor=none;fillColor=none;" vertex="1" parent="e0zLNAE6TxSwQrqriLQ9-1">
          <mxGeometry x="35" y="10" width="90" height="30" as="geometry" />
        </mxCell>
        <mxCell id="e0zLNAE6TxSwQrqriLQ9-21" value="FÃ³rmula hash: %6 (mod)" style="text;html=1;align=center;verticalAlign=middle;resizable=0;points=[];autosize=1;strokeColor=none;fillColor=none;" vertex="1" parent="e0zLNAE6TxSwQrqriLQ9-1">
          <mxGeometry x="160" y="10" width="160" height="30" as="geometry" />
        </mxCell>
        <mxCell id="c4WCxQbngyjmrCK89YOf-0" value="13" style="whiteSpace=wrap;html=1;rounded=0;" vertex="1" parent="e0zLNAE6TxSwQrqriLQ9-1">
          <mxGeometry x="320" y="140" width="40" height="40" as="geometry" />
        </mxCell>
        <mxCell id="c4WCxQbngyjmrCK89YOf-1" value="" style="edgeStyle=orthogonalEdgeStyle;rounded=0;orthogonalLoop=1;jettySize=auto;html=1;" edge="1" parent="e0zLNAE6TxSwQrqriLQ9-1" source="e0zLNAE6TxSwQrqriLQ9-6" target="c4WCxQbngyjmrCK89YOf-0">
          <mxGeometry relative="1" as="geometry" />
        </mxCell>
      </root>
    </mxGraphModel>
  </diagram>
  <diagram name="6" id="WJMSbYEgpZYL6I8WmEam">
    <mxGraphModel dx="995" dy="471" grid="1" gridSize="10" guides="1" tooltips="1" connect="1" arrows="1" fold="1" page="1" pageScale="1" pageWidth="850" pageHeight="1100" math="0" shadow="0">
      <root>
        <mxCell id="LdhBJR0AP9hTEKjCB_y2-0" />
        <mxCell id="LdhBJR0AP9hTEKjCB_y2-1" parent="LdhBJR0AP9hTEKjCB_y2-0" />
        <mxCell id="LdhBJR0AP9hTEKjCB_y2-2" value="" style="group" vertex="1" connectable="0" parent="LdhBJR0AP9hTEKjCB_y2-1">
          <mxGeometry x="90" y="80" width="150" height="40" as="geometry" />
        </mxCell>
        <mxCell id="LdhBJR0AP9hTEKjCB_y2-3" value="60" style="rounded=0;whiteSpace=wrap;html=1;" vertex="1" parent="LdhBJR0AP9hTEKjCB_y2-2">
          <mxGeometry x="30" width="120" height="40" as="geometry" />
        </mxCell>
        <mxCell id="LdhBJR0AP9hTEKjCB_y2-4" value="0" style="text;html=1;align=center;verticalAlign=middle;resizable=0;points=[];autosize=1;strokeColor=none;fillColor=none;" vertex="1" parent="LdhBJR0AP9hTEKjCB_y2-2">
          <mxGeometry y="5" width="30" height="30" as="geometry" />
        </mxCell>
        <mxCell id="LdhBJR0AP9hTEKjCB_y2-5" value="" style="group" vertex="1" connectable="0" parent="LdhBJR0AP9hTEKjCB_y2-1">
          <mxGeometry x="90" y="140" width="150" height="40" as="geometry" />
        </mxCell>
        <mxCell id="LdhBJR0AP9hTEKjCB_y2-6" value="7" style="rounded=0;whiteSpace=wrap;html=1;" vertex="1" parent="LdhBJR0AP9hTEKjCB_y2-5">
          <mxGeometry x="30" width="120" height="40" as="geometry" />
        </mxCell>
        <mxCell id="LdhBJR0AP9hTEKjCB_y2-7" value="1" style="text;html=1;align=center;verticalAlign=middle;resizable=0;points=[];autosize=1;strokeColor=none;fillColor=none;" vertex="1" parent="LdhBJR0AP9hTEKjCB_y2-5">
          <mxGeometry y="5" width="30" height="30" as="geometry" />
        </mxCell>
        <mxCell id="LdhBJR0AP9hTEKjCB_y2-8" value="" style="group" vertex="1" connectable="0" parent="LdhBJR0AP9hTEKjCB_y2-1">
          <mxGeometry x="90" y="200" width="150" height="40" as="geometry" />
        </mxCell>
        <mxCell id="LdhBJR0AP9hTEKjCB_y2-9" value="" style="rounded=0;whiteSpace=wrap;html=1;" vertex="1" parent="LdhBJR0AP9hTEKjCB_y2-8">
          <mxGeometry x="30" width="120" height="40" as="geometry" />
        </mxCell>
        <mxCell id="LdhBJR0AP9hTEKjCB_y2-10" value="2" style="text;html=1;align=center;verticalAlign=middle;resizable=0;points=[];autosize=1;strokeColor=none;fillColor=none;" vertex="1" parent="LdhBJR0AP9hTEKjCB_y2-8">
          <mxGeometry y="5" width="30" height="30" as="geometry" />
        </mxCell>
        <mxCell id="LdhBJR0AP9hTEKjCB_y2-11" value="" style="group" vertex="1" connectable="0" parent="LdhBJR0AP9hTEKjCB_y2-1">
          <mxGeometry x="90" y="320" width="150" height="40" as="geometry" />
        </mxCell>
        <mxCell id="LdhBJR0AP9hTEKjCB_y2-12" value="" style="rounded=0;whiteSpace=wrap;html=1;" vertex="1" parent="LdhBJR0AP9hTEKjCB_y2-11">
          <mxGeometry x="30" width="120" height="40" as="geometry" />
        </mxCell>
        <mxCell id="LdhBJR0AP9hTEKjCB_y2-13" value="4" style="text;html=1;align=center;verticalAlign=middle;resizable=0;points=[];autosize=1;strokeColor=none;fillColor=none;" vertex="1" parent="LdhBJR0AP9hTEKjCB_y2-11">
          <mxGeometry y="5" width="30" height="30" as="geometry" />
        </mxCell>
        <mxCell id="LdhBJR0AP9hTEKjCB_y2-14" value="" style="group" vertex="1" connectable="0" parent="LdhBJR0AP9hTEKjCB_y2-1">
          <mxGeometry x="90" y="270" width="150" height="40" as="geometry" />
        </mxCell>
        <mxCell id="LdhBJR0AP9hTEKjCB_y2-15" value="21" style="rounded=0;whiteSpace=wrap;html=1;" vertex="1" parent="LdhBJR0AP9hTEKjCB_y2-14">
          <mxGeometry x="30" y="-10" width="120" height="40" as="geometry" />
        </mxCell>
        <mxCell id="LdhBJR0AP9hTEKjCB_y2-16" value="3" style="text;html=1;align=center;verticalAlign=middle;resizable=0;points=[];autosize=1;strokeColor=none;fillColor=none;" vertex="1" parent="LdhBJR0AP9hTEKjCB_y2-14">
          <mxGeometry y="5" width="30" height="30" as="geometry" />
        </mxCell>
        <mxCell id="LdhBJR0AP9hTEKjCB_y2-17" value="" style="group" vertex="1" connectable="0" parent="LdhBJR0AP9hTEKjCB_y2-1">
          <mxGeometry x="90" y="380" width="150" height="40" as="geometry" />
        </mxCell>
        <mxCell id="LdhBJR0AP9hTEKjCB_y2-18" value="11" style="rounded=0;whiteSpace=wrap;html=1;" vertex="1" parent="LdhBJR0AP9hTEKjCB_y2-17">
          <mxGeometry x="30" width="120" height="40" as="geometry" />
        </mxCell>
        <mxCell id="LdhBJR0AP9hTEKjCB_y2-19" value="5" style="text;html=1;align=center;verticalAlign=middle;resizable=0;points=[];autosize=1;strokeColor=none;fillColor=none;" vertex="1" parent="LdhBJR0AP9hTEKjCB_y2-17">
          <mxGeometry y="5" width="30" height="30" as="geometry" />
        </mxCell>
        <mxCell id="LdhBJR0AP9hTEKjCB_y2-20" value="Tamanha = 6" style="text;html=1;align=center;verticalAlign=middle;resizable=0;points=[];autosize=1;strokeColor=none;fillColor=none;" vertex="1" parent="LdhBJR0AP9hTEKjCB_y2-1">
          <mxGeometry x="35" y="10" width="90" height="30" as="geometry" />
        </mxCell>
        <mxCell id="LdhBJR0AP9hTEKjCB_y2-21" value="FÃ³rmula hash: %6 (mod)" style="text;html=1;align=center;verticalAlign=middle;resizable=0;points=[];autosize=1;strokeColor=none;fillColor=none;" vertex="1" parent="LdhBJR0AP9hTEKjCB_y2-1">
          <mxGeometry x="160" y="10" width="160" height="30" as="geometry" />
        </mxCell>
        <mxCell id="LdhBJR0AP9hTEKjCB_y2-22" value="13" style="whiteSpace=wrap;html=1;rounded=0;" vertex="1" parent="LdhBJR0AP9hTEKjCB_y2-1">
          <mxGeometry x="320" y="140" width="40" height="40" as="geometry" />
        </mxCell>
        <mxCell id="LdhBJR0AP9hTEKjCB_y2-23" value="" style="edgeStyle=orthogonalEdgeStyle;rounded=0;orthogonalLoop=1;jettySize=auto;html=1;" edge="1" parent="LdhBJR0AP9hTEKjCB_y2-1" source="LdhBJR0AP9hTEKjCB_y2-6" target="LdhBJR0AP9hTEKjCB_y2-22">
          <mxGeometry relative="1" as="geometry" />
        </mxCell>
      </root>
    </mxGraphModel>
  </diagram>
  <diagram name="7" id="B2PI3OBFncYl3teV_qjZ">
    <mxGraphModel dx="995" dy="471" grid="1" gridSize="10" guides="1" tooltips="1" connect="1" arrows="1" fold="1" page="1" pageScale="1" pageWidth="850" pageHeight="1100" math="0" shadow="0">
      <root>
        <mxCell id="lvxUJnUaB2I0xUQkt7or-0" />
        <mxCell id="lvxUJnUaB2I0xUQkt7or-1" parent="lvxUJnUaB2I0xUQkt7or-0" />
        <mxCell id="lvxUJnUaB2I0xUQkt7or-2" value="" style="group" vertex="1" connectable="0" parent="lvxUJnUaB2I0xUQkt7or-1">
          <mxGeometry x="90" y="80" width="150" height="40" as="geometry" />
        </mxCell>
        <mxCell id="lvxUJnUaB2I0xUQkt7or-3" value="60" style="rounded=0;whiteSpace=wrap;html=1;" vertex="1" parent="lvxUJnUaB2I0xUQkt7or-2">
          <mxGeometry x="30" width="120" height="40" as="geometry" />
        </mxCell>
        <mxCell id="lvxUJnUaB2I0xUQkt7or-4" value="0" style="text;html=1;align=center;verticalAlign=middle;resizable=0;points=[];autosize=1;strokeColor=none;fillColor=none;" vertex="1" parent="lvxUJnUaB2I0xUQkt7or-2">
          <mxGeometry y="5" width="30" height="30" as="geometry" />
        </mxCell>
        <mxCell id="lvxUJnUaB2I0xUQkt7or-5" value="" style="group" vertex="1" connectable="0" parent="lvxUJnUaB2I0xUQkt7or-1">
          <mxGeometry x="90" y="140" width="150" height="40" as="geometry" />
        </mxCell>
        <mxCell id="lvxUJnUaB2I0xUQkt7or-6" value="7" style="rounded=0;whiteSpace=wrap;html=1;" vertex="1" parent="lvxUJnUaB2I0xUQkt7or-5">
          <mxGeometry x="30" width="120" height="40" as="geometry" />
        </mxCell>
        <mxCell id="lvxUJnUaB2I0xUQkt7or-7" value="1" style="text;html=1;align=center;verticalAlign=middle;resizable=0;points=[];autosize=1;strokeColor=none;fillColor=none;" vertex="1" parent="lvxUJnUaB2I0xUQkt7or-5">
          <mxGeometry y="5" width="30" height="30" as="geometry" />
        </mxCell>
        <mxCell id="lvxUJnUaB2I0xUQkt7or-8" value="" style="group" vertex="1" connectable="0" parent="lvxUJnUaB2I0xUQkt7or-1">
          <mxGeometry x="90" y="200" width="150" height="40" as="geometry" />
        </mxCell>
        <mxCell id="lvxUJnUaB2I0xUQkt7or-9" value="" style="rounded=0;whiteSpace=wrap;html=1;" vertex="1" parent="lvxUJnUaB2I0xUQkt7or-8">
          <mxGeometry x="30" width="120" height="40" as="geometry" />
        </mxCell>
        <mxCell id="lvxUJnUaB2I0xUQkt7or-10" value="2" style="text;html=1;align=center;verticalAlign=middle;resizable=0;points=[];autosize=1;strokeColor=none;fillColor=none;" vertex="1" parent="lvxUJnUaB2I0xUQkt7or-8">
          <mxGeometry y="5" width="30" height="30" as="geometry" />
        </mxCell>
        <mxCell id="lvxUJnUaB2I0xUQkt7or-11" value="" style="group" vertex="1" connectable="0" parent="lvxUJnUaB2I0xUQkt7or-1">
          <mxGeometry x="90" y="320" width="150" height="40" as="geometry" />
        </mxCell>
        <mxCell id="lvxUJnUaB2I0xUQkt7or-12" value="4" style="rounded=0;whiteSpace=wrap;html=1;" vertex="1" parent="lvxUJnUaB2I0xUQkt7or-11">
          <mxGeometry x="30" width="120" height="40" as="geometry" />
        </mxCell>
        <mxCell id="lvxUJnUaB2I0xUQkt7or-13" value="4" style="text;html=1;align=center;verticalAlign=middle;resizable=0;points=[];autosize=1;strokeColor=none;fillColor=none;" vertex="1" parent="lvxUJnUaB2I0xUQkt7or-11">
          <mxGeometry y="5" width="30" height="30" as="geometry" />
        </mxCell>
        <mxCell id="lvxUJnUaB2I0xUQkt7or-14" value="" style="group" vertex="1" connectable="0" parent="lvxUJnUaB2I0xUQkt7or-1">
          <mxGeometry x="90" y="270" width="150" height="40" as="geometry" />
        </mxCell>
        <mxCell id="lvxUJnUaB2I0xUQkt7or-15" value="21" style="rounded=0;whiteSpace=wrap;html=1;" vertex="1" parent="lvxUJnUaB2I0xUQkt7or-14">
          <mxGeometry x="30" y="-10" width="120" height="40" as="geometry" />
        </mxCell>
        <mxCell id="lvxUJnUaB2I0xUQkt7or-16" value="3" style="text;html=1;align=center;verticalAlign=middle;resizable=0;points=[];autosize=1;strokeColor=none;fillColor=none;" vertex="1" parent="lvxUJnUaB2I0xUQkt7or-14">
          <mxGeometry y="5" width="30" height="30" as="geometry" />
        </mxCell>
        <mxCell id="lvxUJnUaB2I0xUQkt7or-17" value="" style="group" vertex="1" connectable="0" parent="lvxUJnUaB2I0xUQkt7or-1">
          <mxGeometry x="90" y="380" width="150" height="40" as="geometry" />
        </mxCell>
        <mxCell id="lvxUJnUaB2I0xUQkt7or-18" value="11" style="rounded=0;whiteSpace=wrap;html=1;" vertex="1" parent="lvxUJnUaB2I0xUQkt7or-17">
          <mxGeometry x="30" width="120" height="40" as="geometry" />
        </mxCell>
        <mxCell id="lvxUJnUaB2I0xUQkt7or-19" value="5" style="text;html=1;align=center;verticalAlign=middle;resizable=0;points=[];autosize=1;strokeColor=none;fillColor=none;" vertex="1" parent="lvxUJnUaB2I0xUQkt7or-17">
          <mxGeometry y="5" width="30" height="30" as="geometry" />
        </mxCell>
        <mxCell id="lvxUJnUaB2I0xUQkt7or-20" value="Tamanha = 6" style="text;html=1;align=center;verticalAlign=middle;resizable=0;points=[];autosize=1;strokeColor=none;fillColor=none;" vertex="1" parent="lvxUJnUaB2I0xUQkt7or-1">
          <mxGeometry x="35" y="10" width="90" height="30" as="geometry" />
        </mxCell>
        <mxCell id="lvxUJnUaB2I0xUQkt7or-21" value="FÃ³rmula hash: %6 (mod)" style="text;html=1;align=center;verticalAlign=middle;resizable=0;points=[];autosize=1;strokeColor=none;fillColor=none;" vertex="1" parent="lvxUJnUaB2I0xUQkt7or-1">
          <mxGeometry x="160" y="10" width="160" height="30" as="geometry" />
        </mxCell>
        <mxCell id="lvxUJnUaB2I0xUQkt7or-22" value="13" style="whiteSpace=wrap;html=1;rounded=0;" vertex="1" parent="lvxUJnUaB2I0xUQkt7or-1">
          <mxGeometry x="320" y="140" width="40" height="40" as="geometry" />
        </mxCell>
        <mxCell id="lvxUJnUaB2I0xUQkt7or-23" value="" style="edgeStyle=orthogonalEdgeStyle;rounded=0;orthogonalLoop=1;jettySize=auto;html=1;" edge="1" parent="lvxUJnUaB2I0xUQkt7or-1" source="lvxUJnUaB2I0xUQkt7or-6" target="lvxUJnUaB2I0xUQkt7or-22">
          <mxGeometry relative="1" as="geometry" />
        </mxCell>
      </root>
    </mxGraphModel>
  </diagram>
  <diagram name="8" id="0lBRmxH1xuw-uvajmeqb">
    <mxGraphModel dx="995" dy="471" grid="1" gridSize="10" guides="1" tooltips="1" connect="1" arrows="1" fold="1" page="1" pageScale="1" pageWidth="850" pageHeight="1100" math="0" shadow="0">
      <root>
        <mxCell id="3ojhep8vi5KuEu-KEL7Z-0" />
        <mxCell id="3ojhep8vi5KuEu-KEL7Z-1" parent="3ojhep8vi5KuEu-KEL7Z-0" />
        <mxCell id="3ojhep8vi5KuEu-KEL7Z-2" value="" style="group" vertex="1" connectable="0" parent="3ojhep8vi5KuEu-KEL7Z-1">
          <mxGeometry x="90" y="80" width="150" height="40" as="geometry" />
        </mxCell>
        <mxCell id="3ojhep8vi5KuEu-KEL7Z-3" value="60" style="rounded=0;whiteSpace=wrap;html=1;" vertex="1" parent="3ojhep8vi5KuEu-KEL7Z-2">
          <mxGeometry x="30" width="120" height="40" as="geometry" />
        </mxCell>
        <mxCell id="3ojhep8vi5KuEu-KEL7Z-4" value="0" style="text;html=1;align=center;verticalAlign=middle;resizable=0;points=[];autosize=1;strokeColor=none;fillColor=none;" vertex="1" parent="3ojhep8vi5KuEu-KEL7Z-2">
          <mxGeometry y="5" width="30" height="30" as="geometry" />
        </mxCell>
        <mxCell id="3ojhep8vi5KuEu-KEL7Z-5" value="" style="group" vertex="1" connectable="0" parent="3ojhep8vi5KuEu-KEL7Z-1">
          <mxGeometry x="90" y="140" width="150" height="40" as="geometry" />
        </mxCell>
        <mxCell id="3ojhep8vi5KuEu-KEL7Z-6" value="49" style="rounded=0;whiteSpace=wrap;html=1;" vertex="1" parent="3ojhep8vi5KuEu-KEL7Z-5">
          <mxGeometry x="30" width="120" height="40" as="geometry" />
        </mxCell>
        <mxCell id="3ojhep8vi5KuEu-KEL7Z-7" value="1" style="text;html=1;align=center;verticalAlign=middle;resizable=0;points=[];autosize=1;strokeColor=none;fillColor=none;" vertex="1" parent="3ojhep8vi5KuEu-KEL7Z-5">
          <mxGeometry y="5" width="30" height="30" as="geometry" />
        </mxCell>
        <mxCell id="3ojhep8vi5KuEu-KEL7Z-8" value="" style="group" vertex="1" connectable="0" parent="3ojhep8vi5KuEu-KEL7Z-1">
          <mxGeometry x="90" y="200" width="150" height="40" as="geometry" />
        </mxCell>
        <mxCell id="3ojhep8vi5KuEu-KEL7Z-9" value="" style="rounded=0;whiteSpace=wrap;html=1;" vertex="1" parent="3ojhep8vi5KuEu-KEL7Z-8">
          <mxGeometry x="30" width="120" height="40" as="geometry" />
        </mxCell>
        <mxCell id="3ojhep8vi5KuEu-KEL7Z-10" value="2" style="text;html=1;align=center;verticalAlign=middle;resizable=0;points=[];autosize=1;strokeColor=none;fillColor=none;" vertex="1" parent="3ojhep8vi5KuEu-KEL7Z-8">
          <mxGeometry y="5" width="30" height="30" as="geometry" />
        </mxCell>
        <mxCell id="3ojhep8vi5KuEu-KEL7Z-11" value="" style="group" vertex="1" connectable="0" parent="3ojhep8vi5KuEu-KEL7Z-1">
          <mxGeometry x="90" y="320" width="150" height="40" as="geometry" />
        </mxCell>
        <mxCell id="3ojhep8vi5KuEu-KEL7Z-12" value="4" style="rounded=0;whiteSpace=wrap;html=1;" vertex="1" parent="3ojhep8vi5KuEu-KEL7Z-11">
          <mxGeometry x="30" width="120" height="40" as="geometry" />
        </mxCell>
        <mxCell id="3ojhep8vi5KuEu-KEL7Z-13" value="4" style="text;html=1;align=center;verticalAlign=middle;resizable=0;points=[];autosize=1;strokeColor=none;fillColor=none;" vertex="1" parent="3ojhep8vi5KuEu-KEL7Z-11">
          <mxGeometry y="5" width="30" height="30" as="geometry" />
        </mxCell>
        <mxCell id="3ojhep8vi5KuEu-KEL7Z-14" value="" style="group" vertex="1" connectable="0" parent="3ojhep8vi5KuEu-KEL7Z-1">
          <mxGeometry x="90" y="270" width="150" height="40" as="geometry" />
        </mxCell>
        <mxCell id="3ojhep8vi5KuEu-KEL7Z-15" value="21" style="rounded=0;whiteSpace=wrap;html=1;" vertex="1" parent="3ojhep8vi5KuEu-KEL7Z-14">
          <mxGeometry x="30" y="-10" width="120" height="40" as="geometry" />
        </mxCell>
        <mxCell id="3ojhep8vi5KuEu-KEL7Z-16" value="3" style="text;html=1;align=center;verticalAlign=middle;resizable=0;points=[];autosize=1;strokeColor=none;fillColor=none;" vertex="1" parent="3ojhep8vi5KuEu-KEL7Z-14">
          <mxGeometry y="5" width="30" height="30" as="geometry" />
        </mxCell>
        <mxCell id="3ojhep8vi5KuEu-KEL7Z-17" value="" style="group" vertex="1" connectable="0" parent="3ojhep8vi5KuEu-KEL7Z-1">
          <mxGeometry x="90" y="380" width="150" height="40" as="geometry" />
        </mxCell>
        <mxCell id="3ojhep8vi5KuEu-KEL7Z-18" value="11" style="rounded=0;whiteSpace=wrap;html=1;" vertex="1" parent="3ojhep8vi5KuEu-KEL7Z-17">
          <mxGeometry x="30" width="120" height="40" as="geometry" />
        </mxCell>
        <mxCell id="3ojhep8vi5KuEu-KEL7Z-19" value="5" style="text;html=1;align=center;verticalAlign=middle;resizable=0;points=[];autosize=1;strokeColor=none;fillColor=none;" vertex="1" parent="3ojhep8vi5KuEu-KEL7Z-17">
          <mxGeometry y="5" width="30" height="30" as="geometry" />
        </mxCell>
        <mxCell id="3ojhep8vi5KuEu-KEL7Z-20" value="Tamanha = 6" style="text;html=1;align=center;verticalAlign=middle;resizable=0;points=[];autosize=1;strokeColor=none;fillColor=none;" vertex="1" parent="3ojhep8vi5KuEu-KEL7Z-1">
          <mxGeometry x="35" y="10" width="90" height="30" as="geometry" />
        </mxCell>
        <mxCell id="3ojhep8vi5KuEu-KEL7Z-21" value="FÃ³rmula hash: %6 (mod)" style="text;html=1;align=center;verticalAlign=middle;resizable=0;points=[];autosize=1;strokeColor=none;fillColor=none;" vertex="1" parent="3ojhep8vi5KuEu-KEL7Z-1">
          <mxGeometry x="160" y="10" width="160" height="30" as="geometry" />
        </mxCell>
        <mxCell id="xKBmKz3Wbf8zSEBVttAK-1" value="" style="edgeStyle=orthogonalEdgeStyle;rounded=0;orthogonalLoop=1;jettySize=auto;html=1;" edge="1" parent="3ojhep8vi5KuEu-KEL7Z-1" source="3ojhep8vi5KuEu-KEL7Z-22" target="xKBmKz3Wbf8zSEBVttAK-0">
          <mxGeometry relative="1" as="geometry" />
        </mxCell>
        <mxCell id="3ojhep8vi5KuEu-KEL7Z-22" value="7" style="whiteSpace=wrap;html=1;rounded=0;" vertex="1" parent="3ojhep8vi5KuEu-KEL7Z-1">
          <mxGeometry x="320" y="140" width="40" height="40" as="geometry" />
        </mxCell>
        <mxCell id="3ojhep8vi5KuEu-KEL7Z-23" value="" style="edgeStyle=orthogonalEdgeStyle;rounded=0;orthogonalLoop=1;jettySize=auto;html=1;" edge="1" parent="3ojhep8vi5KuEu-KEL7Z-1" source="3ojhep8vi5KuEu-KEL7Z-6" target="3ojhep8vi5KuEu-KEL7Z-22">
          <mxGeometry relative="1" as="geometry" />
        </mxCell>
        <mxCell id="xKBmKz3Wbf8zSEBVttAK-0" value="13" style="whiteSpace=wrap;html=1;rounded=0;" vertex="1" parent="3ojhep8vi5KuEu-KEL7Z-1">
          <mxGeometry x="440" y="140" width="40" height="40" as="geometry" />
        </mxCell>
      </root>
    </mxGraphModel>
  </diagram>
  <diagram name="9" id="v44rBteV9bg3PVYWk06O">
    <mxGraphModel dx="995" dy="471" grid="1" gridSize="10" guides="1" tooltips="1" connect="1" arrows="1" fold="1" page="1" pageScale="1" pageWidth="850" pageHeight="1100" math="0" shadow="0">
      <root>
        <mxCell id="sZgN-6ZiNTnkeXTxpBM8-0" />
        <mxCell id="sZgN-6ZiNTnkeXTxpBM8-1" parent="sZgN-6ZiNTnkeXTxpBM8-0" />
        <mxCell id="sZgN-6ZiNTnkeXTxpBM8-2" value="" style="group" vertex="1" connectable="0" parent="sZgN-6ZiNTnkeXTxpBM8-1">
          <mxGeometry x="90" y="80" width="150" height="40" as="geometry" />
        </mxCell>
        <mxCell id="sZgN-6ZiNTnkeXTxpBM8-3" value="60" style="rounded=0;whiteSpace=wrap;html=1;" vertex="1" parent="sZgN-6ZiNTnkeXTxpBM8-2">
          <mxGeometry x="30" width="120" height="40" as="geometry" />
        </mxCell>
        <mxCell id="sZgN-6ZiNTnkeXTxpBM8-4" value="0" style="text;html=1;align=center;verticalAlign=middle;resizable=0;points=[];autosize=1;strokeColor=none;fillColor=none;" vertex="1" parent="sZgN-6ZiNTnkeXTxpBM8-2">
          <mxGeometry y="5" width="30" height="30" as="geometry" />
        </mxCell>
        <mxCell id="sZgN-6ZiNTnkeXTxpBM8-5" value="" style="group" vertex="1" connectable="0" parent="sZgN-6ZiNTnkeXTxpBM8-1">
          <mxGeometry x="90" y="140" width="150" height="40" as="geometry" />
        </mxCell>
        <mxCell id="sZgN-6ZiNTnkeXTxpBM8-6" value="49" style="rounded=0;whiteSpace=wrap;html=1;" vertex="1" parent="sZgN-6ZiNTnkeXTxpBM8-5">
          <mxGeometry x="30" width="120" height="40" as="geometry" />
        </mxCell>
        <mxCell id="sZgN-6ZiNTnkeXTxpBM8-7" value="1" style="text;html=1;align=center;verticalAlign=middle;resizable=0;points=[];autosize=1;strokeColor=none;fillColor=none;" vertex="1" parent="sZgN-6ZiNTnkeXTxpBM8-5">
          <mxGeometry y="5" width="30" height="30" as="geometry" />
        </mxCell>
        <mxCell id="sZgN-6ZiNTnkeXTxpBM8-8" value="" style="group" vertex="1" connectable="0" parent="sZgN-6ZiNTnkeXTxpBM8-1">
          <mxGeometry x="90" y="200" width="150" height="40" as="geometry" />
        </mxCell>
        <mxCell id="sZgN-6ZiNTnkeXTxpBM8-9" value="" style="rounded=0;whiteSpace=wrap;html=1;" vertex="1" parent="sZgN-6ZiNTnkeXTxpBM8-8">
          <mxGeometry x="30" width="120" height="40" as="geometry" />
        </mxCell>
        <mxCell id="sZgN-6ZiNTnkeXTxpBM8-10" value="2" style="text;html=1;align=center;verticalAlign=middle;resizable=0;points=[];autosize=1;strokeColor=none;fillColor=none;" vertex="1" parent="sZgN-6ZiNTnkeXTxpBM8-8">
          <mxGeometry y="5" width="30" height="30" as="geometry" />
        </mxCell>
        <mxCell id="sZgN-6ZiNTnkeXTxpBM8-11" value="" style="group" vertex="1" connectable="0" parent="sZgN-6ZiNTnkeXTxpBM8-1">
          <mxGeometry x="90" y="320" width="150" height="40" as="geometry" />
        </mxCell>
        <mxCell id="sZgN-6ZiNTnkeXTxpBM8-12" value="4" style="rounded=0;whiteSpace=wrap;html=1;" vertex="1" parent="sZgN-6ZiNTnkeXTxpBM8-11">
          <mxGeometry x="30" width="120" height="40" as="geometry" />
        </mxCell>
        <mxCell id="sZgN-6ZiNTnkeXTxpBM8-13" value="4" style="text;html=1;align=center;verticalAlign=middle;resizable=0;points=[];autosize=1;strokeColor=none;fillColor=none;" vertex="1" parent="sZgN-6ZiNTnkeXTxpBM8-11">
          <mxGeometry y="5" width="30" height="30" as="geometry" />
        </mxCell>
        <mxCell id="sZgN-6ZiNTnkeXTxpBM8-14" value="" style="group" vertex="1" connectable="0" parent="sZgN-6ZiNTnkeXTxpBM8-1">
          <mxGeometry x="90" y="270" width="150" height="40" as="geometry" />
        </mxCell>
        <mxCell id="sZgN-6ZiNTnkeXTxpBM8-15" value="33" style="rounded=0;whiteSpace=wrap;html=1;" vertex="1" parent="sZgN-6ZiNTnkeXTxpBM8-14">
          <mxGeometry x="30" y="-10" width="120" height="40" as="geometry" />
        </mxCell>
        <mxCell id="sZgN-6ZiNTnkeXTxpBM8-16" value="3" style="text;html=1;align=center;verticalAlign=middle;resizable=0;points=[];autosize=1;strokeColor=none;fillColor=none;" vertex="1" parent="sZgN-6ZiNTnkeXTxpBM8-14">
          <mxGeometry y="5" width="30" height="30" as="geometry" />
        </mxCell>
        <mxCell id="sZgN-6ZiNTnkeXTxpBM8-17" value="" style="group" vertex="1" connectable="0" parent="sZgN-6ZiNTnkeXTxpBM8-1">
          <mxGeometry x="90" y="380" width="150" height="40" as="geometry" />
        </mxCell>
        <mxCell id="sZgN-6ZiNTnkeXTxpBM8-18" value="11" style="rounded=0;whiteSpace=wrap;html=1;" vertex="1" parent="sZgN-6ZiNTnkeXTxpBM8-17">
          <mxGeometry x="30" width="120" height="40" as="geometry" />
        </mxCell>
        <mxCell id="sZgN-6ZiNTnkeXTxpBM8-19" value="5" style="text;html=1;align=center;verticalAlign=middle;resizable=0;points=[];autosize=1;strokeColor=none;fillColor=none;" vertex="1" parent="sZgN-6ZiNTnkeXTxpBM8-17">
          <mxGeometry y="5" width="30" height="30" as="geometry" />
        </mxCell>
        <mxCell id="sZgN-6ZiNTnkeXTxpBM8-20" value="Tamanha = 6" style="text;html=1;align=center;verticalAlign=middle;resizable=0;points=[];autosize=1;strokeColor=none;fillColor=none;" vertex="1" parent="sZgN-6ZiNTnkeXTxpBM8-1">
          <mxGeometry x="35" y="10" width="90" height="30" as="geometry" />
        </mxCell>
        <mxCell id="sZgN-6ZiNTnkeXTxpBM8-21" value="FÃ³rmula hash: %6 (mod)" style="text;html=1;align=center;verticalAlign=middle;resizable=0;points=[];autosize=1;strokeColor=none;fillColor=none;" vertex="1" parent="sZgN-6ZiNTnkeXTxpBM8-1">
          <mxGeometry x="160" y="10" width="160" height="30" as="geometry" />
        </mxCell>
        <mxCell id="sZgN-6ZiNTnkeXTxpBM8-22" value="" style="edgeStyle=orthogonalEdgeStyle;rounded=0;orthogonalLoop=1;jettySize=auto;html=1;" edge="1" parent="sZgN-6ZiNTnkeXTxpBM8-1" source="sZgN-6ZiNTnkeXTxpBM8-23" target="sZgN-6ZiNTnkeXTxpBM8-25">
          <mxGeometry relative="1" as="geometry" />
        </mxCell>
        <mxCell id="sZgN-6ZiNTnkeXTxpBM8-23" value="7" style="whiteSpace=wrap;html=1;rounded=0;" vertex="1" parent="sZgN-6ZiNTnkeXTxpBM8-1">
          <mxGeometry x="320" y="140" width="40" height="40" as="geometry" />
        </mxCell>
        <mxCell id="sZgN-6ZiNTnkeXTxpBM8-24" value="" style="edgeStyle=orthogonalEdgeStyle;rounded=0;orthogonalLoop=1;jettySize=auto;html=1;" edge="1" parent="sZgN-6ZiNTnkeXTxpBM8-1" source="sZgN-6ZiNTnkeXTxpBM8-6" target="sZgN-6ZiNTnkeXTxpBM8-23">
          <mxGeometry relative="1" as="geometry" />
        </mxCell>
        <mxCell id="sZgN-6ZiNTnkeXTxpBM8-25" value="13" style="whiteSpace=wrap;html=1;rounded=0;" vertex="1" parent="sZgN-6ZiNTnkeXTxpBM8-1">
          <mxGeometry x="440" y="140" width="40" height="40" as="geometry" />
        </mxCell>
        <mxCell id="YZ2P3NHKjoOE81FB_bj9-0" value="21" style="rounded=0;whiteSpace=wrap;html=1;" vertex="1" parent="sZgN-6ZiNTnkeXTxpBM8-1">
          <mxGeometry x="320" y="260" width="40" height="40" as="geometry" />
        </mxCell>
        <mxCell id="YZ2P3NHKjoOE81FB_bj9-1" value="" style="edgeStyle=orthogonalEdgeStyle;rounded=0;orthogonalLoop=1;jettySize=auto;html=1;" edge="1" parent="sZgN-6ZiNTnkeXTxpBM8-1" source="sZgN-6ZiNTnkeXTxpBM8-15" target="YZ2P3NHKjoOE81FB_bj9-0">
          <mxGeometry relative="1" as="geometry" />
        </mxCell>
      </root>
    </mxGraphModel>
  </diagram>
  <diagram name="10" id="hIICi_ppVhh1E782-c0v">
    <mxGraphModel dx="995" dy="471" grid="1" gridSize="10" guides="1" tooltips="1" connect="1" arrows="1" fold="1" page="1" pageScale="1" pageWidth="850" pageHeight="1100" math="0" shadow="0">
      <root>
        <mxCell id="xQf21cW78qOq50_FpVk8-0" />
        <mxCell id="xQf21cW78qOq50_FpVk8-1" parent="xQf21cW78qOq50_FpVk8-0" />
        <mxCell id="xQf21cW78qOq50_FpVk8-2" value="" style="group" vertex="1" connectable="0" parent="xQf21cW78qOq50_FpVk8-1">
          <mxGeometry x="90" y="80" width="150" height="40" as="geometry" />
        </mxCell>
        <mxCell id="xQf21cW78qOq50_FpVk8-3" value="60" style="rounded=0;whiteSpace=wrap;html=1;" vertex="1" parent="xQf21cW78qOq50_FpVk8-2">
          <mxGeometry x="30" width="120" height="40" as="geometry" />
        </mxCell>
        <mxCell id="xQf21cW78qOq50_FpVk8-4" value="0" style="text;html=1;align=center;verticalAlign=middle;resizable=0;points=[];autosize=1;strokeColor=none;fillColor=none;" vertex="1" parent="xQf21cW78qOq50_FpVk8-2">
          <mxGeometry y="5" width="30" height="30" as="geometry" />
        </mxCell>
        <mxCell id="xQf21cW78qOq50_FpVk8-5" value="" style="group" vertex="1" connectable="0" parent="xQf21cW78qOq50_FpVk8-1">
          <mxGeometry x="90" y="140" width="150" height="40" as="geometry" />
        </mxCell>
        <mxCell id="xQf21cW78qOq50_FpVk8-6" value="49" style="rounded=0;whiteSpace=wrap;html=1;" vertex="1" parent="xQf21cW78qOq50_FpVk8-5">
          <mxGeometry x="30" width="120" height="40" as="geometry" />
        </mxCell>
        <mxCell id="xQf21cW78qOq50_FpVk8-7" value="1" style="text;html=1;align=center;verticalAlign=middle;resizable=0;points=[];autosize=1;strokeColor=none;fillColor=none;" vertex="1" parent="xQf21cW78qOq50_FpVk8-5">
          <mxGeometry y="5" width="30" height="30" as="geometry" />
        </mxCell>
        <mxCell id="xQf21cW78qOq50_FpVk8-8" value="" style="group" vertex="1" connectable="0" parent="xQf21cW78qOq50_FpVk8-1">
          <mxGeometry x="90" y="200" width="150" height="40" as="geometry" />
        </mxCell>
        <mxCell id="xQf21cW78qOq50_FpVk8-9" value="" style="rounded=0;whiteSpace=wrap;html=1;" vertex="1" parent="xQf21cW78qOq50_FpVk8-8">
          <mxGeometry x="30" width="120" height="40" as="geometry" />
        </mxCell>
        <mxCell id="xQf21cW78qOq50_FpVk8-10" value="2" style="text;html=1;align=center;verticalAlign=middle;resizable=0;points=[];autosize=1;strokeColor=none;fillColor=none;" vertex="1" parent="xQf21cW78qOq50_FpVk8-8">
          <mxGeometry y="5" width="30" height="30" as="geometry" />
        </mxCell>
        <mxCell id="xQf21cW78qOq50_FpVk8-11" value="" style="group" vertex="1" connectable="0" parent="xQf21cW78qOq50_FpVk8-1">
          <mxGeometry x="90" y="320" width="150" height="40" as="geometry" />
        </mxCell>
        <mxCell id="xQf21cW78qOq50_FpVk8-12" value="40" style="rounded=0;whiteSpace=wrap;html=1;" vertex="1" parent="xQf21cW78qOq50_FpVk8-11">
          <mxGeometry x="30" width="120" height="40" as="geometry" />
        </mxCell>
        <mxCell id="xQf21cW78qOq50_FpVk8-13" value="4" style="text;html=1;align=center;verticalAlign=middle;resizable=0;points=[];autosize=1;strokeColor=none;fillColor=none;" vertex="1" parent="xQf21cW78qOq50_FpVk8-11">
          <mxGeometry y="5" width="30" height="30" as="geometry" />
        </mxCell>
        <mxCell id="xQf21cW78qOq50_FpVk8-14" value="" style="group" vertex="1" connectable="0" parent="xQf21cW78qOq50_FpVk8-1">
          <mxGeometry x="90" y="270" width="150" height="40" as="geometry" />
        </mxCell>
        <mxCell id="xQf21cW78qOq50_FpVk8-15" value="33" style="rounded=0;whiteSpace=wrap;html=1;" vertex="1" parent="xQf21cW78qOq50_FpVk8-14">
          <mxGeometry x="30" y="-10" width="120" height="40" as="geometry" />
        </mxCell>
        <mxCell id="xQf21cW78qOq50_FpVk8-16" value="3" style="text;html=1;align=center;verticalAlign=middle;resizable=0;points=[];autosize=1;strokeColor=none;fillColor=none;" vertex="1" parent="xQf21cW78qOq50_FpVk8-14">
          <mxGeometry y="5" width="30" height="30" as="geometry" />
        </mxCell>
        <mxCell id="xQf21cW78qOq50_FpVk8-17" value="" style="group" vertex="1" connectable="0" parent="xQf21cW78qOq50_FpVk8-1">
          <mxGeometry x="90" y="380" width="150" height="40" as="geometry" />
        </mxCell>
        <mxCell id="xQf21cW78qOq50_FpVk8-18" value="5" style="rounded=0;whiteSpace=wrap;html=1;" vertex="1" parent="xQf21cW78qOq50_FpVk8-17">
          <mxGeometry x="30" width="120" height="40" as="geometry" />
        </mxCell>
        <mxCell id="xQf21cW78qOq50_FpVk8-19" value="5" style="text;html=1;align=center;verticalAlign=middle;resizable=0;points=[];autosize=1;strokeColor=none;fillColor=none;" vertex="1" parent="xQf21cW78qOq50_FpVk8-17">
          <mxGeometry y="5" width="30" height="30" as="geometry" />
        </mxCell>
        <mxCell id="xQf21cW78qOq50_FpVk8-20" value="Tamanha = 6" style="text;html=1;align=center;verticalAlign=middle;resizable=0;points=[];autosize=1;strokeColor=none;fillColor=none;" vertex="1" parent="xQf21cW78qOq50_FpVk8-1">
          <mxGeometry x="35" y="10" width="90" height="30" as="geometry" />
        </mxCell>
        <mxCell id="xQf21cW78qOq50_FpVk8-21" value="FÃ³rmula hash: %6 (mod)" style="text;html=1;align=center;verticalAlign=middle;resizable=0;points=[];autosize=1;strokeColor=none;fillColor=none;" vertex="1" parent="xQf21cW78qOq50_FpVk8-1">
          <mxGeometry x="160" y="10" width="160" height="30" as="geometry" />
        </mxCell>
        <mxCell id="xQf21cW78qOq50_FpVk8-22" value="" style="edgeStyle=orthogonalEdgeStyle;rounded=0;orthogonalLoop=1;jettySize=auto;html=1;" edge="1" parent="xQf21cW78qOq50_FpVk8-1" source="xQf21cW78qOq50_FpVk8-23" target="xQf21cW78qOq50_FpVk8-25">
          <mxGeometry relative="1" as="geometry" />
        </mxCell>
        <mxCell id="xQf21cW78qOq50_FpVk8-23" value="7" style="whiteSpace=wrap;html=1;rounded=0;" vertex="1" parent="xQf21cW78qOq50_FpVk8-1">
          <mxGeometry x="320" y="140" width="40" height="40" as="geometry" />
        </mxCell>
        <mxCell id="xQf21cW78qOq50_FpVk8-24" value="" style="edgeStyle=orthogonalEdgeStyle;rounded=0;orthogonalLoop=1;jettySize=auto;html=1;" edge="1" parent="xQf21cW78qOq50_FpVk8-1" source="xQf21cW78qOq50_FpVk8-6" target="xQf21cW78qOq50_FpVk8-23">
          <mxGeometry relative="1" as="geometry" />
        </mxCell>
        <mxCell id="xQf21cW78qOq50_FpVk8-25" value="13" style="whiteSpace=wrap;html=1;rounded=0;" vertex="1" parent="xQf21cW78qOq50_FpVk8-1">
          <mxGeometry x="440" y="140" width="40" height="40" as="geometry" />
        </mxCell>
        <mxCell id="xQf21cW78qOq50_FpVk8-26" value="21" style="rounded=0;whiteSpace=wrap;html=1;" vertex="1" parent="xQf21cW78qOq50_FpVk8-1">
          <mxGeometry x="320" y="260" width="40" height="40" as="geometry" />
        </mxCell>
        <mxCell id="xQf21cW78qOq50_FpVk8-27" value="" style="edgeStyle=orthogonalEdgeStyle;rounded=0;orthogonalLoop=1;jettySize=auto;html=1;" edge="1" parent="xQf21cW78qOq50_FpVk8-1" source="xQf21cW78qOq50_FpVk8-15" target="xQf21cW78qOq50_FpVk8-26">
          <mxGeometry relative="1" as="geometry" />
        </mxCell>
        <mxCell id="fXnhlmpa_A-lDmmN1SlG-0" value="4" style="rounded=0;whiteSpace=wrap;html=1;" vertex="1" parent="xQf21cW78qOq50_FpVk8-1">
          <mxGeometry x="320" y="320" width="40" height="40" as="geometry" />
        </mxCell>
        <mxCell id="fXnhlmpa_A-lDmmN1SlG-1" value="" style="edgeStyle=orthogonalEdgeStyle;rounded=0;orthogonalLoop=1;jettySize=auto;html=1;" edge="1" parent="xQf21cW78qOq50_FpVk8-1" source="xQf21cW78qOq50_FpVk8-12" target="fXnhlmpa_A-lDmmN1SlG-0">
          <mxGeometry relative="1" as="geometry" />
        </mxCell>
      </root>
    </mxGraphModel>
  </diagram>
  <diagram name="11" id="a3s4mRFCEYE_1LDFEhMD">
    <mxGraphModel dx="995" dy="471" grid="1" gridSize="10" guides="1" tooltips="1" connect="1" arrows="1" fold="1" page="1" pageScale="1" pageWidth="850" pageHeight="1100" math="0" shadow="0">
      <root>
        <mxCell id="ImwH4G9YxKJO1ewqIaxo-0" />
        <mxCell id="ImwH4G9YxKJO1ewqIaxo-1" parent="ImwH4G9YxKJO1ewqIaxo-0" />
        <mxCell id="ImwH4G9YxKJO1ewqIaxo-2" value="" style="group" vertex="1" connectable="0" parent="ImwH4G9YxKJO1ewqIaxo-1">
          <mxGeometry x="90" y="80" width="150" height="40" as="geometry" />
        </mxCell>
        <mxCell id="ImwH4G9YxKJO1ewqIaxo-3" value="60" style="rounded=0;whiteSpace=wrap;html=1;" vertex="1" parent="ImwH4G9YxKJO1ewqIaxo-2">
          <mxGeometry x="30" width="120" height="40" as="geometry" />
        </mxCell>
        <mxCell id="ImwH4G9YxKJO1ewqIaxo-4" value="0" style="text;html=1;align=center;verticalAlign=middle;resizable=0;points=[];autosize=1;strokeColor=none;fillColor=none;" vertex="1" parent="ImwH4G9YxKJO1ewqIaxo-2">
          <mxGeometry y="5" width="30" height="30" as="geometry" />
        </mxCell>
        <mxCell id="ImwH4G9YxKJO1ewqIaxo-5" value="" style="group" vertex="1" connectable="0" parent="ImwH4G9YxKJO1ewqIaxo-1">
          <mxGeometry x="90" y="140" width="150" height="40" as="geometry" />
        </mxCell>
        <mxCell id="ImwH4G9YxKJO1ewqIaxo-6" value="49" style="rounded=0;whiteSpace=wrap;html=1;" vertex="1" parent="ImwH4G9YxKJO1ewqIaxo-5">
          <mxGeometry x="30" width="120" height="40" as="geometry" />
        </mxCell>
        <mxCell id="ImwH4G9YxKJO1ewqIaxo-7" value="1" style="text;html=1;align=center;verticalAlign=middle;resizable=0;points=[];autosize=1;strokeColor=none;fillColor=none;" vertex="1" parent="ImwH4G9YxKJO1ewqIaxo-5">
          <mxGeometry y="5" width="30" height="30" as="geometry" />
        </mxCell>
        <mxCell id="ImwH4G9YxKJO1ewqIaxo-8" value="" style="group" vertex="1" connectable="0" parent="ImwH4G9YxKJO1ewqIaxo-1">
          <mxGeometry x="90" y="200" width="150" height="40" as="geometry" />
        </mxCell>
        <mxCell id="ImwH4G9YxKJO1ewqIaxo-9" value="" style="rounded=0;whiteSpace=wrap;html=1;" vertex="1" parent="ImwH4G9YxKJO1ewqIaxo-8">
          <mxGeometry x="30" width="120" height="40" as="geometry" />
        </mxCell>
        <mxCell id="ImwH4G9YxKJO1ewqIaxo-10" value="2" style="text;html=1;align=center;verticalAlign=middle;resizable=0;points=[];autosize=1;strokeColor=none;fillColor=none;" vertex="1" parent="ImwH4G9YxKJO1ewqIaxo-8">
          <mxGeometry y="5" width="30" height="30" as="geometry" />
        </mxCell>
        <mxCell id="ImwH4G9YxKJO1ewqIaxo-11" value="" style="group" vertex="1" connectable="0" parent="ImwH4G9YxKJO1ewqIaxo-1">
          <mxGeometry x="90" y="320" width="150" height="40" as="geometry" />
        </mxCell>
        <mxCell id="ImwH4G9YxKJO1ewqIaxo-12" value="40" style="rounded=0;whiteSpace=wrap;html=1;" vertex="1" parent="ImwH4G9YxKJO1ewqIaxo-11">
          <mxGeometry x="30" width="120" height="40" as="geometry" />
        </mxCell>
        <mxCell id="ImwH4G9YxKJO1ewqIaxo-13" value="4" style="text;html=1;align=center;verticalAlign=middle;resizable=0;points=[];autosize=1;strokeColor=none;fillColor=none;" vertex="1" parent="ImwH4G9YxKJO1ewqIaxo-11">
          <mxGeometry y="5" width="30" height="30" as="geometry" />
        </mxCell>
        <mxCell id="ImwH4G9YxKJO1ewqIaxo-14" value="" style="group" vertex="1" connectable="0" parent="ImwH4G9YxKJO1ewqIaxo-1">
          <mxGeometry x="90" y="270" width="150" height="40" as="geometry" />
        </mxCell>
        <mxCell id="ImwH4G9YxKJO1ewqIaxo-15" value="33" style="rounded=0;whiteSpace=wrap;html=1;" vertex="1" parent="ImwH4G9YxKJO1ewqIaxo-14">
          <mxGeometry x="30" y="-10" width="120" height="40" as="geometry" />
        </mxCell>
        <mxCell id="ImwH4G9YxKJO1ewqIaxo-16" value="3" style="text;html=1;align=center;verticalAlign=middle;resizable=0;points=[];autosize=1;strokeColor=none;fillColor=none;" vertex="1" parent="ImwH4G9YxKJO1ewqIaxo-14">
          <mxGeometry y="5" width="30" height="30" as="geometry" />
        </mxCell>
        <mxCell id="ImwH4G9YxKJO1ewqIaxo-17" value="" style="group" vertex="1" connectable="0" parent="ImwH4G9YxKJO1ewqIaxo-1">
          <mxGeometry x="90" y="380" width="150" height="40" as="geometry" />
        </mxCell>
        <mxCell id="ImwH4G9YxKJO1ewqIaxo-18" value="5" style="rounded=0;whiteSpace=wrap;html=1;" vertex="1" parent="ImwH4G9YxKJO1ewqIaxo-17">
          <mxGeometry x="30" width="120" height="40" as="geometry" />
        </mxCell>
        <mxCell id="ImwH4G9YxKJO1ewqIaxo-19" value="5" style="text;html=1;align=center;verticalAlign=middle;resizable=0;points=[];autosize=1;strokeColor=none;fillColor=none;" vertex="1" parent="ImwH4G9YxKJO1ewqIaxo-17">
          <mxGeometry y="5" width="30" height="30" as="geometry" />
        </mxCell>
        <mxCell id="ImwH4G9YxKJO1ewqIaxo-20" value="Tamanha = 6" style="text;html=1;align=center;verticalAlign=middle;resizable=0;points=[];autosize=1;strokeColor=none;fillColor=none;" vertex="1" parent="ImwH4G9YxKJO1ewqIaxo-1">
          <mxGeometry x="35" y="10" width="90" height="30" as="geometry" />
        </mxCell>
        <mxCell id="ImwH4G9YxKJO1ewqIaxo-21" value="FÃ³rmula hash: %6 (mod)" style="text;html=1;align=center;verticalAlign=middle;resizable=0;points=[];autosize=1;strokeColor=none;fillColor=none;" vertex="1" parent="ImwH4G9YxKJO1ewqIaxo-1">
          <mxGeometry x="160" y="10" width="160" height="30" as="geometry" />
        </mxCell>
        <mxCell id="ImwH4G9YxKJO1ewqIaxo-22" value="" style="edgeStyle=orthogonalEdgeStyle;rounded=0;orthogonalLoop=1;jettySize=auto;html=1;" edge="1" parent="ImwH4G9YxKJO1ewqIaxo-1" source="ImwH4G9YxKJO1ewqIaxo-23" target="ImwH4G9YxKJO1ewqIaxo-25">
          <mxGeometry relative="1" as="geometry" />
        </mxCell>
        <mxCell id="ImwH4G9YxKJO1ewqIaxo-23" value="7" style="whiteSpace=wrap;html=1;rounded=0;" vertex="1" parent="ImwH4G9YxKJO1ewqIaxo-1">
          <mxGeometry x="320" y="140" width="40" height="40" as="geometry" />
        </mxCell>
        <mxCell id="ImwH4G9YxKJO1ewqIaxo-24" value="" style="edgeStyle=orthogonalEdgeStyle;rounded=0;orthogonalLoop=1;jettySize=auto;html=1;" edge="1" parent="ImwH4G9YxKJO1ewqIaxo-1" source="ImwH4G9YxKJO1ewqIaxo-6" target="ImwH4G9YxKJO1ewqIaxo-23">
          <mxGeometry relative="1" as="geometry" />
        </mxCell>
        <mxCell id="ImwH4G9YxKJO1ewqIaxo-25" value="13" style="whiteSpace=wrap;html=1;rounded=0;" vertex="1" parent="ImwH4G9YxKJO1ewqIaxo-1">
          <mxGeometry x="440" y="140" width="40" height="40" as="geometry" />
        </mxCell>
        <mxCell id="ImwH4G9YxKJO1ewqIaxo-26" value="21" style="rounded=0;whiteSpace=wrap;html=1;" vertex="1" parent="ImwH4G9YxKJO1ewqIaxo-1">
          <mxGeometry x="320" y="260" width="40" height="40" as="geometry" />
        </mxCell>
        <mxCell id="ImwH4G9YxKJO1ewqIaxo-27" value="" style="edgeStyle=orthogonalEdgeStyle;rounded=0;orthogonalLoop=1;jettySize=auto;html=1;" edge="1" parent="ImwH4G9YxKJO1ewqIaxo-1" source="ImwH4G9YxKJO1ewqIaxo-15" target="ImwH4G9YxKJO1ewqIaxo-26">
          <mxGeometry relative="1" as="geometry" />
        </mxCell>
        <mxCell id="ImwH4G9YxKJO1ewqIaxo-28" value="4" style="rounded=0;whiteSpace=wrap;html=1;" vertex="1" parent="ImwH4G9YxKJO1ewqIaxo-1">
          <mxGeometry x="320" y="320" width="40" height="40" as="geometry" />
        </mxCell>
        <mxCell id="ImwH4G9YxKJO1ewqIaxo-29" value="" style="edgeStyle=orthogonalEdgeStyle;rounded=0;orthogonalLoop=1;jettySize=auto;html=1;" edge="1" parent="ImwH4G9YxKJO1ewqIaxo-1" source="ImwH4G9YxKJO1ewqIaxo-12" target="ImwH4G9YxKJO1ewqIaxo-28">
          <mxGeometry relative="1" as="geometry" />
        </mxCell>
        <mxCell id="ImwH4G9YxKJO1ewqIaxo-30" value="11" style="rounded=0;whiteSpace=wrap;html=1;" vertex="1" parent="ImwH4G9YxKJO1ewqIaxo-1">
          <mxGeometry x="320" y="380" width="40" height="40" as="geometry" />
        </mxCell>
        <mxCell id="ImwH4G9YxKJO1ewqIaxo-31" value="" style="edgeStyle=orthogonalEdgeStyle;rounded=0;orthogonalLoop=1;jettySize=auto;html=1;" edge="1" parent="ImwH4G9YxKJO1ewqIaxo-1" source="ImwH4G9YxKJO1ewqIaxo-18" target="ImwH4G9YxKJO1ewqIaxo-30">
          <mxGeometry relative="1" as="geometry" />
        </mxCell>
      </root>
    </mxGraphModel>
  </diagram>
  <diagram name="12" id="h3gEWtu68YJji2jpks58">
    <mxGraphModel dx="995" dy="471" grid="1" gridSize="10" guides="1" tooltips="1" connect="1" arrows="1" fold="1" page="1" pageScale="1" pageWidth="850" pageHeight="1100" math="0" shadow="0">
      <root>
        <mxCell id="rECobbZ6eHzLv6hmyTzP-0" />
        <mxCell id="rECobbZ6eHzLv6hmyTzP-1" parent="rECobbZ6eHzLv6hmyTzP-0" />
        <mxCell id="rECobbZ6eHzLv6hmyTzP-2" value="" style="group" vertex="1" connectable="0" parent="rECobbZ6eHzLv6hmyTzP-1">
          <mxGeometry x="90" y="80" width="150" height="40" as="geometry" />
        </mxCell>
        <mxCell id="rECobbZ6eHzLv6hmyTzP-3" value="60" style="rounded=0;whiteSpace=wrap;html=1;" vertex="1" parent="rECobbZ6eHzLv6hmyTzP-2">
          <mxGeometry x="30" width="120" height="40" as="geometry" />
        </mxCell>
        <mxCell id="rECobbZ6eHzLv6hmyTzP-4" value="0" style="text;html=1;align=center;verticalAlign=middle;resizable=0;points=[];autosize=1;strokeColor=none;fillColor=none;" vertex="1" parent="rECobbZ6eHzLv6hmyTzP-2">
          <mxGeometry y="5" width="30" height="30" as="geometry" />
        </mxCell>
        <mxCell id="rECobbZ6eHzLv6hmyTzP-5" value="" style="group" vertex="1" connectable="0" parent="rECobbZ6eHzLv6hmyTzP-1">
          <mxGeometry x="90" y="140" width="150" height="40" as="geometry" />
        </mxCell>
        <mxCell id="rECobbZ6eHzLv6hmyTzP-6" value="49" style="rounded=0;whiteSpace=wrap;html=1;" vertex="1" parent="rECobbZ6eHzLv6hmyTzP-5">
          <mxGeometry x="30" width="120" height="40" as="geometry" />
        </mxCell>
        <mxCell id="rECobbZ6eHzLv6hmyTzP-7" value="1" style="text;html=1;align=center;verticalAlign=middle;resizable=0;points=[];autosize=1;strokeColor=none;fillColor=none;" vertex="1" parent="rECobbZ6eHzLv6hmyTzP-5">
          <mxGeometry y="5" width="30" height="30" as="geometry" />
        </mxCell>
        <mxCell id="rECobbZ6eHzLv6hmyTzP-8" value="" style="group" vertex="1" connectable="0" parent="rECobbZ6eHzLv6hmyTzP-1">
          <mxGeometry x="90" y="200" width="150" height="40" as="geometry" />
        </mxCell>
        <mxCell id="rECobbZ6eHzLv6hmyTzP-9" value="8" style="rounded=0;whiteSpace=wrap;html=1;" vertex="1" parent="rECobbZ6eHzLv6hmyTzP-8">
          <mxGeometry x="30" width="120" height="40" as="geometry" />
        </mxCell>
        <mxCell id="rECobbZ6eHzLv6hmyTzP-10" value="2" style="text;html=1;align=center;verticalAlign=middle;resizable=0;points=[];autosize=1;strokeColor=none;fillColor=none;" vertex="1" parent="rECobbZ6eHzLv6hmyTzP-8">
          <mxGeometry y="5" width="30" height="30" as="geometry" />
        </mxCell>
        <mxCell id="rECobbZ6eHzLv6hmyTzP-11" value="" style="group" vertex="1" connectable="0" parent="rECobbZ6eHzLv6hmyTzP-1">
          <mxGeometry x="90" y="320" width="150" height="40" as="geometry" />
        </mxCell>
        <mxCell id="rECobbZ6eHzLv6hmyTzP-12" value="40" style="rounded=0;whiteSpace=wrap;html=1;" vertex="1" parent="rECobbZ6eHzLv6hmyTzP-11">
          <mxGeometry x="30" width="120" height="40" as="geometry" />
        </mxCell>
        <mxCell id="rECobbZ6eHzLv6hmyTzP-13" value="4" style="text;html=1;align=center;verticalAlign=middle;resizable=0;points=[];autosize=1;strokeColor=none;fillColor=none;" vertex="1" parent="rECobbZ6eHzLv6hmyTzP-11">
          <mxGeometry y="5" width="30" height="30" as="geometry" />
        </mxCell>
        <mxCell id="rECobbZ6eHzLv6hmyTzP-14" value="" style="group" vertex="1" connectable="0" parent="rECobbZ6eHzLv6hmyTzP-1">
          <mxGeometry x="90" y="270" width="150" height="40" as="geometry" />
        </mxCell>
        <mxCell id="rECobbZ6eHzLv6hmyTzP-15" value="33" style="rounded=0;whiteSpace=wrap;html=1;" vertex="1" parent="rECobbZ6eHzLv6hmyTzP-14">
          <mxGeometry x="30" y="-10" width="120" height="40" as="geometry" />
        </mxCell>
        <mxCell id="rECobbZ6eHzLv6hmyTzP-16" value="3" style="text;html=1;align=center;verticalAlign=middle;resizable=0;points=[];autosize=1;strokeColor=none;fillColor=none;" vertex="1" parent="rECobbZ6eHzLv6hmyTzP-14">
          <mxGeometry y="5" width="30" height="30" as="geometry" />
        </mxCell>
        <mxCell id="rECobbZ6eHzLv6hmyTzP-17" value="" style="group" vertex="1" connectable="0" parent="rECobbZ6eHzLv6hmyTzP-1">
          <mxGeometry x="90" y="380" width="150" height="40" as="geometry" />
        </mxCell>
        <mxCell id="rECobbZ6eHzLv6hmyTzP-18" value="5" style="rounded=0;whiteSpace=wrap;html=1;" vertex="1" parent="rECobbZ6eHzLv6hmyTzP-17">
          <mxGeometry x="30" width="120" height="40" as="geometry" />
        </mxCell>
        <mxCell id="rECobbZ6eHzLv6hmyTzP-19" value="5" style="text;html=1;align=center;verticalAlign=middle;resizable=0;points=[];autosize=1;strokeColor=none;fillColor=none;" vertex="1" parent="rECobbZ6eHzLv6hmyTzP-17">
          <mxGeometry y="5" width="30" height="30" as="geometry" />
        </mxCell>
        <mxCell id="rECobbZ6eHzLv6hmyTzP-20" value="Tamanha = 6" style="text;html=1;align=center;verticalAlign=middle;resizable=0;points=[];autosize=1;strokeColor=none;fillColor=none;" vertex="1" parent="rECobbZ6eHzLv6hmyTzP-1">
          <mxGeometry x="35" y="10" width="90" height="30" as="geometry" />
        </mxCell>
        <mxCell id="rECobbZ6eHzLv6hmyTzP-21" value="FÃ³rmula hash: %6 (mod)" style="text;html=1;align=center;verticalAlign=middle;resizable=0;points=[];autosize=1;strokeColor=none;fillColor=none;" vertex="1" parent="rECobbZ6eHzLv6hmyTzP-1">
          <mxGeometry x="160" y="10" width="160" height="30" as="geometry" />
        </mxCell>
        <mxCell id="rECobbZ6eHzLv6hmyTzP-22" value="" style="edgeStyle=orthogonalEdgeStyle;rounded=0;orthogonalLoop=1;jettySize=auto;html=1;" edge="1" parent="rECobbZ6eHzLv6hmyTzP-1" source="rECobbZ6eHzLv6hmyTzP-23" target="rECobbZ6eHzLv6hmyTzP-25">
          <mxGeometry relative="1" as="geometry" />
        </mxCell>
        <mxCell id="rECobbZ6eHzLv6hmyTzP-23" value="7" style="whiteSpace=wrap;html=1;rounded=0;" vertex="1" parent="rECobbZ6eHzLv6hmyTzP-1">
          <mxGeometry x="320" y="140" width="40" height="40" as="geometry" />
        </mxCell>
        <mxCell id="rECobbZ6eHzLv6hmyTzP-24" value="" style="edgeStyle=orthogonalEdgeStyle;rounded=0;orthogonalLoop=1;jettySize=auto;html=1;" edge="1" parent="rECobbZ6eHzLv6hmyTzP-1" source="rECobbZ6eHzLv6hmyTzP-6" target="rECobbZ6eHzLv6hmyTzP-23">
          <mxGeometry relative="1" as="geometry" />
        </mxCell>
        <mxCell id="rECobbZ6eHzLv6hmyTzP-25" value="13" style="whiteSpace=wrap;html=1;rounded=0;" vertex="1" parent="rECobbZ6eHzLv6hmyTzP-1">
          <mxGeometry x="440" y="140" width="40" height="40" as="geometry" />
        </mxCell>
        <mxCell id="rECobbZ6eHzLv6hmyTzP-26" value="21" style="rounded=0;whiteSpace=wrap;html=1;" vertex="1" parent="rECobbZ6eHzLv6hmyTzP-1">
          <mxGeometry x="320" y="260" width="40" height="40" as="geometry" />
        </mxCell>
        <mxCell id="rECobbZ6eHzLv6hmyTzP-27" value="" style="edgeStyle=orthogonalEdgeStyle;rounded=0;orthogonalLoop=1;jettySize=auto;html=1;" edge="1" parent="rECobbZ6eHzLv6hmyTzP-1" source="rECobbZ6eHzLv6hmyTzP-15" target="rECobbZ6eHzLv6hmyTzP-26">
          <mxGeometry relative="1" as="geometry" />
        </mxCell>
        <mxCell id="rECobbZ6eHzLv6hmyTzP-28" value="4" style="rounded=0;whiteSpace=wrap;html=1;" vertex="1" parent="rECobbZ6eHzLv6hmyTzP-1">
          <mxGeometry x="320" y="320" width="40" height="40" as="geometry" />
        </mxCell>
        <mxCell id="rECobbZ6eHzLv6hmyTzP-29" value="" style="edgeStyle=orthogonalEdgeStyle;rounded=0;orthogonalLoop=1;jettySize=auto;html=1;" edge="1" parent="rECobbZ6eHzLv6hmyTzP-1" source="rECobbZ6eHzLv6hmyTzP-12" target="rECobbZ6eHzLv6hmyTzP-28">
          <mxGeometry relative="1" as="geometry" />
        </mxCell>
        <mxCell id="rECobbZ6eHzLv6hmyTzP-30" value="11" style="rounded=0;whiteSpace=wrap;html=1;" vertex="1" parent="rECobbZ6eHzLv6hmyTzP-1">
          <mxGeometry x="320" y="380" width="40" height="40" as="geometry" />
        </mxCell>
        <mxCell id="rECobbZ6eHzLv6hmyTzP-31" value="" style="edgeStyle=orthogonalEdgeStyle;rounded=0;orthogonalLoop=1;jettySize=auto;html=1;" edge="1" parent="rECobbZ6eHzLv6hmyTzP-1" source="rECobbZ6eHzLv6hmyTzP-18" target="rECobbZ6eHzLv6hmyTzP-30">
          <mxGeometry relative="1" as="geometry" />
        </mxCell>
      </root>
    </mxGraphModel>
  </diagram>
  <diagram name="13" id="7P4xSRlxJL8ZSvP0NQ2f">
    <mxGraphModel dx="995" dy="471" grid="1" gridSize="10" guides="1" tooltips="1" connect="1" arrows="1" fold="1" page="1" pageScale="1" pageWidth="850" pageHeight="1100" math="0" shadow="0">
      <root>
        <mxCell id="9WZKed1e-Bb1eFzLgIll-0" />
        <mxCell id="9WZKed1e-Bb1eFzLgIll-1" parent="9WZKed1e-Bb1eFzLgIll-0" />
        <mxCell id="9WZKed1e-Bb1eFzLgIll-2" value="" style="group" vertex="1" connectable="0" parent="9WZKed1e-Bb1eFzLgIll-1">
          <mxGeometry x="90" y="80" width="150" height="40" as="geometry" />
        </mxCell>
        <mxCell id="9WZKed1e-Bb1eFzLgIll-3" value="60" style="rounded=0;whiteSpace=wrap;html=1;" vertex="1" parent="9WZKed1e-Bb1eFzLgIll-2">
          <mxGeometry x="30" width="120" height="40" as="geometry" />
        </mxCell>
        <mxCell id="9WZKed1e-Bb1eFzLgIll-4" value="0" style="text;html=1;align=center;verticalAlign=middle;resizable=0;points=[];autosize=1;strokeColor=none;fillColor=none;" vertex="1" parent="9WZKed1e-Bb1eFzLgIll-2">
          <mxGeometry y="5" width="30" height="30" as="geometry" />
        </mxCell>
        <mxCell id="9WZKed1e-Bb1eFzLgIll-5" value="" style="group" vertex="1" connectable="0" parent="9WZKed1e-Bb1eFzLgIll-1">
          <mxGeometry x="90" y="140" width="150" height="40" as="geometry" />
        </mxCell>
        <mxCell id="9WZKed1e-Bb1eFzLgIll-6" value="49" style="rounded=0;whiteSpace=wrap;html=1;" vertex="1" parent="9WZKed1e-Bb1eFzLgIll-5">
          <mxGeometry x="30" width="120" height="40" as="geometry" />
        </mxCell>
        <mxCell id="9WZKed1e-Bb1eFzLgIll-7" value="1" style="text;html=1;align=center;verticalAlign=middle;resizable=0;points=[];autosize=1;strokeColor=none;fillColor=none;" vertex="1" parent="9WZKed1e-Bb1eFzLgIll-5">
          <mxGeometry y="5" width="30" height="30" as="geometry" />
        </mxCell>
        <mxCell id="9WZKed1e-Bb1eFzLgIll-8" value="" style="group" vertex="1" connectable="0" parent="9WZKed1e-Bb1eFzLgIll-1">
          <mxGeometry x="90" y="200" width="150" height="40" as="geometry" />
        </mxCell>
        <mxCell id="9WZKed1e-Bb1eFzLgIll-9" value="8" style="rounded=0;whiteSpace=wrap;html=1;" vertex="1" parent="9WZKed1e-Bb1eFzLgIll-8">
          <mxGeometry x="30" width="120" height="40" as="geometry" />
        </mxCell>
        <mxCell id="9WZKed1e-Bb1eFzLgIll-10" value="2" style="text;html=1;align=center;verticalAlign=middle;resizable=0;points=[];autosize=1;strokeColor=none;fillColor=none;" vertex="1" parent="9WZKed1e-Bb1eFzLgIll-8">
          <mxGeometry y="5" width="30" height="30" as="geometry" />
        </mxCell>
        <mxCell id="9WZKed1e-Bb1eFzLgIll-11" value="" style="group" vertex="1" connectable="0" parent="9WZKed1e-Bb1eFzLgIll-1">
          <mxGeometry x="90" y="320" width="150" height="40" as="geometry" />
        </mxCell>
        <mxCell id="9WZKed1e-Bb1eFzLgIll-12" value="40" style="rounded=0;whiteSpace=wrap;html=1;" vertex="1" parent="9WZKed1e-Bb1eFzLgIll-11">
          <mxGeometry x="30" width="120" height="40" as="geometry" />
        </mxCell>
        <mxCell id="9WZKed1e-Bb1eFzLgIll-13" value="4" style="text;html=1;align=center;verticalAlign=middle;resizable=0;points=[];autosize=1;strokeColor=none;fillColor=none;" vertex="1" parent="9WZKed1e-Bb1eFzLgIll-11">
          <mxGeometry y="5" width="30" height="30" as="geometry" />
        </mxCell>
        <mxCell id="9WZKed1e-Bb1eFzLgIll-14" value="" style="group" vertex="1" connectable="0" parent="9WZKed1e-Bb1eFzLgIll-1">
          <mxGeometry x="90" y="270" width="150" height="40" as="geometry" />
        </mxCell>
        <mxCell id="9WZKed1e-Bb1eFzLgIll-15" value="33" style="rounded=0;whiteSpace=wrap;html=1;" vertex="1" parent="9WZKed1e-Bb1eFzLgIll-14">
          <mxGeometry x="30" y="-10" width="120" height="40" as="geometry" />
        </mxCell>
        <mxCell id="9WZKed1e-Bb1eFzLgIll-16" value="3" style="text;html=1;align=center;verticalAlign=middle;resizable=0;points=[];autosize=1;strokeColor=none;fillColor=none;" vertex="1" parent="9WZKed1e-Bb1eFzLgIll-14">
          <mxGeometry y="5" width="30" height="30" as="geometry" />
        </mxCell>
        <mxCell id="9WZKed1e-Bb1eFzLgIll-17" value="" style="group" vertex="1" connectable="0" parent="9WZKed1e-Bb1eFzLgIll-1">
          <mxGeometry x="90" y="380" width="150" height="40" as="geometry" />
        </mxCell>
        <mxCell id="9WZKed1e-Bb1eFzLgIll-18" value="5" style="rounded=0;whiteSpace=wrap;html=1;" vertex="1" parent="9WZKed1e-Bb1eFzLgIll-17">
          <mxGeometry x="30" width="120" height="40" as="geometry" />
        </mxCell>
        <mxCell id="9WZKed1e-Bb1eFzLgIll-19" value="5" style="text;html=1;align=center;verticalAlign=middle;resizable=0;points=[];autosize=1;strokeColor=none;fillColor=none;" vertex="1" parent="9WZKed1e-Bb1eFzLgIll-17">
          <mxGeometry y="5" width="30" height="30" as="geometry" />
        </mxCell>
        <mxCell id="9WZKed1e-Bb1eFzLgIll-20" value="Tamanha = 6" style="text;html=1;align=center;verticalAlign=middle;resizable=0;points=[];autosize=1;strokeColor=none;fillColor=none;" vertex="1" parent="9WZKed1e-Bb1eFzLgIll-1">
          <mxGeometry x="35" y="10" width="90" height="30" as="geometry" />
        </mxCell>
        <mxCell id="9WZKed1e-Bb1eFzLgIll-21" value="FÃ³rmula hash: %6 (mod)" style="text;html=1;align=center;verticalAlign=middle;resizable=0;points=[];autosize=1;strokeColor=none;fillColor=none;" vertex="1" parent="9WZKed1e-Bb1eFzLgIll-1">
          <mxGeometry x="160" y="10" width="160" height="30" as="geometry" />
        </mxCell>
        <mxCell id="9WZKed1e-Bb1eFzLgIll-22" value="" style="edgeStyle=orthogonalEdgeStyle;rounded=0;orthogonalLoop=1;jettySize=auto;html=1;" edge="1" parent="9WZKed1e-Bb1eFzLgIll-1" source="9WZKed1e-Bb1eFzLgIll-23" target="9WZKed1e-Bb1eFzLgIll-25">
          <mxGeometry relative="1" as="geometry" />
        </mxCell>
        <mxCell id="9WZKed1e-Bb1eFzLgIll-23" value="7" style="whiteSpace=wrap;html=1;rounded=0;" vertex="1" parent="9WZKed1e-Bb1eFzLgIll-1">
          <mxGeometry x="320" y="140" width="40" height="40" as="geometry" />
        </mxCell>
        <mxCell id="9WZKed1e-Bb1eFzLgIll-24" value="" style="edgeStyle=orthogonalEdgeStyle;rounded=0;orthogonalLoop=1;jettySize=auto;html=1;" edge="1" parent="9WZKed1e-Bb1eFzLgIll-1" source="9WZKed1e-Bb1eFzLgIll-6" target="9WZKed1e-Bb1eFzLgIll-23">
          <mxGeometry relative="1" as="geometry" />
        </mxCell>
        <mxCell id="9WZKed1e-Bb1eFzLgIll-25" value="13" style="whiteSpace=wrap;html=1;rounded=0;" vertex="1" parent="9WZKed1e-Bb1eFzLgIll-1">
          <mxGeometry x="440" y="140" width="40" height="40" as="geometry" />
        </mxCell>
        <mxCell id="9WZKed1e-Bb1eFzLgIll-26" value="21" style="rounded=0;whiteSpace=wrap;html=1;" vertex="1" parent="9WZKed1e-Bb1eFzLgIll-1">
          <mxGeometry x="320" y="260" width="40" height="40" as="geometry" />
        </mxCell>
        <mxCell id="9WZKed1e-Bb1eFzLgIll-27" value="" style="edgeStyle=orthogonalEdgeStyle;rounded=0;orthogonalLoop=1;jettySize=auto;html=1;" edge="1" parent="9WZKed1e-Bb1eFzLgIll-1" source="9WZKed1e-Bb1eFzLgIll-15" target="9WZKed1e-Bb1eFzLgIll-26">
          <mxGeometry relative="1" as="geometry" />
        </mxCell>
        <mxCell id="9WZKed1e-Bb1eFzLgIll-28" value="4" style="rounded=0;whiteSpace=wrap;html=1;" vertex="1" parent="9WZKed1e-Bb1eFzLgIll-1">
          <mxGeometry x="320" y="320" width="40" height="40" as="geometry" />
        </mxCell>
        <mxCell id="9WZKed1e-Bb1eFzLgIll-29" value="" style="edgeStyle=orthogonalEdgeStyle;rounded=0;orthogonalLoop=1;jettySize=auto;html=1;" edge="1" parent="9WZKed1e-Bb1eFzLgIll-1" source="9WZKed1e-Bb1eFzLgIll-12" target="9WZKed1e-Bb1eFzLgIll-28">
          <mxGeometry relative="1" as="geometry" />
        </mxCell>
        <mxCell id="9WZKed1e-Bb1eFzLgIll-30" value="11" style="rounded=0;whiteSpace=wrap;html=1;" vertex="1" parent="9WZKed1e-Bb1eFzLgIll-1">
          <mxGeometry x="320" y="380" width="40" height="40" as="geometry" />
        </mxCell>
        <mxCell id="9WZKed1e-Bb1eFzLgIll-31" value="" style="edgeStyle=orthogonalEdgeStyle;rounded=0;orthogonalLoop=1;jettySize=auto;html=1;" edge="1" parent="9WZKed1e-Bb1eFzLgIll-1" source="9WZKed1e-Bb1eFzLgIll-18" target="9WZKed1e-Bb1eFzLgIll-30">
          <mxGeometry relative="1" as="geometry" />
        </mxCell>
        <mxCell id="tgnVQhwOrv9OoTc-0l1T-0" value="RemoÃ§Ã£o" style="text;html=1;align=center;verticalAlign=middle;resizable=0;points=[];autosize=1;strokeColor=none;fillColor=none;" vertex="1" parent="9WZKed1e-Bb1eFzLgIll-1">
          <mxGeometry x="350" y="10" width="70" height="30" as="geometry" />
        </mxCell>
        <mxCell id="9qvU3AsmNuchYzI5V9Te-0" value="Aux" style="text;html=1;align=center;verticalAlign=middle;resizable=0;points=[];autosize=1;strokeColor=none;fillColor=none;" vertex="1" parent="9WZKed1e-Bb1eFzLgIll-1">
          <mxGeometry x="405" y="260" width="40" height="30" as="geometry" />
        </mxCell>
        <mxCell id="9qvU3AsmNuchYzI5V9Te-1" value="" style="endArrow=classic;html=1;rounded=0;entryX=0.75;entryY=0;entryDx=0;entryDy=0;exitX=0.275;exitY=1.067;exitDx=0;exitDy=0;exitPerimeter=0;" edge="1" parent="9WZKed1e-Bb1eFzLgIll-1" source="9qvU3AsmNuchYzI5V9Te-0" target="9WZKed1e-Bb1eFzLgIll-28">
          <mxGeometry width="50" height="50" relative="1" as="geometry">
            <mxPoint x="400" y="270" as="sourcePoint" />
            <mxPoint x="450" y="220" as="targetPoint" />
          </mxGeometry>
        </mxCell>
      </root>
    </mxGraphModel>
  </diagram>
  <diagram name="14" id="2YV4Jq6Zd4Yx7WdVBPjs">
    <mxGraphModel dx="995" dy="471" grid="1" gridSize="10" guides="1" tooltips="1" connect="1" arrows="1" fold="1" page="1" pageScale="1" pageWidth="850" pageHeight="1100" math="0" shadow="0">
      <root>
        <mxCell id="s8CdskTVLuT2yQnBJIG--0" />
        <mxCell id="s8CdskTVLuT2yQnBJIG--1" parent="s8CdskTVLuT2yQnBJIG--0" />
        <mxCell id="s8CdskTVLuT2yQnBJIG--2" value="" style="group" vertex="1" connectable="0" parent="s8CdskTVLuT2yQnBJIG--1">
          <mxGeometry x="90" y="80" width="150" height="40" as="geometry" />
        </mxCell>
        <mxCell id="s8CdskTVLuT2yQnBJIG--3" value="60" style="rounded=0;whiteSpace=wrap;html=1;" vertex="1" parent="s8CdskTVLuT2yQnBJIG--2">
          <mxGeometry x="30" width="120" height="40" as="geometry" />
        </mxCell>
        <mxCell id="s8CdskTVLuT2yQnBJIG--4" value="0" style="text;html=1;align=center;verticalAlign=middle;resizable=0;points=[];autosize=1;strokeColor=none;fillColor=none;" vertex="1" parent="s8CdskTVLuT2yQnBJIG--2">
          <mxGeometry y="5" width="30" height="30" as="geometry" />
        </mxCell>
        <mxCell id="s8CdskTVLuT2yQnBJIG--5" value="" style="group" vertex="1" connectable="0" parent="s8CdskTVLuT2yQnBJIG--1">
          <mxGeometry x="90" y="140" width="150" height="40" as="geometry" />
        </mxCell>
        <mxCell id="s8CdskTVLuT2yQnBJIG--6" value="49" style="rounded=0;whiteSpace=wrap;html=1;" vertex="1" parent="s8CdskTVLuT2yQnBJIG--5">
          <mxGeometry x="30" width="120" height="40" as="geometry" />
        </mxCell>
        <mxCell id="s8CdskTVLuT2yQnBJIG--7" value="1" style="text;html=1;align=center;verticalAlign=middle;resizable=0;points=[];autosize=1;strokeColor=none;fillColor=none;" vertex="1" parent="s8CdskTVLuT2yQnBJIG--5">
          <mxGeometry y="5" width="30" height="30" as="geometry" />
        </mxCell>
        <mxCell id="s8CdskTVLuT2yQnBJIG--8" value="" style="group" vertex="1" connectable="0" parent="s8CdskTVLuT2yQnBJIG--1">
          <mxGeometry x="90" y="200" width="150" height="40" as="geometry" />
        </mxCell>
        <mxCell id="s8CdskTVLuT2yQnBJIG--9" value="8" style="rounded=0;whiteSpace=wrap;html=1;" vertex="1" parent="s8CdskTVLuT2yQnBJIG--8">
          <mxGeometry x="30" width="120" height="40" as="geometry" />
        </mxCell>
        <mxCell id="s8CdskTVLuT2yQnBJIG--10" value="2" style="text;html=1;align=center;verticalAlign=middle;resizable=0;points=[];autosize=1;strokeColor=none;fillColor=none;" vertex="1" parent="s8CdskTVLuT2yQnBJIG--8">
          <mxGeometry y="5" width="30" height="30" as="geometry" />
        </mxCell>
        <mxCell id="s8CdskTVLuT2yQnBJIG--11" value="" style="group" vertex="1" connectable="0" parent="s8CdskTVLuT2yQnBJIG--1">
          <mxGeometry x="90" y="320" width="150" height="40" as="geometry" />
        </mxCell>
        <mxCell id="s8CdskTVLuT2yQnBJIG--12" value="40" style="rounded=0;whiteSpace=wrap;html=1;" vertex="1" parent="s8CdskTVLuT2yQnBJIG--11">
          <mxGeometry x="30" width="120" height="40" as="geometry" />
        </mxCell>
        <mxCell id="s8CdskTVLuT2yQnBJIG--13" value="4" style="text;html=1;align=center;verticalAlign=middle;resizable=0;points=[];autosize=1;strokeColor=none;fillColor=none;" vertex="1" parent="s8CdskTVLuT2yQnBJIG--11">
          <mxGeometry y="5" width="30" height="30" as="geometry" />
        </mxCell>
        <mxCell id="s8CdskTVLuT2yQnBJIG--14" value="" style="group" vertex="1" connectable="0" parent="s8CdskTVLuT2yQnBJIG--1">
          <mxGeometry x="90" y="270" width="150" height="40" as="geometry" />
        </mxCell>
        <mxCell id="s8CdskTVLuT2yQnBJIG--15" value="33" style="rounded=0;whiteSpace=wrap;html=1;" vertex="1" parent="s8CdskTVLuT2yQnBJIG--14">
          <mxGeometry x="30" y="-10" width="120" height="40" as="geometry" />
        </mxCell>
        <mxCell id="s8CdskTVLuT2yQnBJIG--16" value="3" style="text;html=1;align=center;verticalAlign=middle;resizable=0;points=[];autosize=1;strokeColor=none;fillColor=none;" vertex="1" parent="s8CdskTVLuT2yQnBJIG--14">
          <mxGeometry y="5" width="30" height="30" as="geometry" />
        </mxCell>
        <mxCell id="s8CdskTVLuT2yQnBJIG--17" value="" style="group" vertex="1" connectable="0" parent="s8CdskTVLuT2yQnBJIG--1">
          <mxGeometry x="90" y="380" width="150" height="40" as="geometry" />
        </mxCell>
        <mxCell id="s8CdskTVLuT2yQnBJIG--18" value="5" style="rounded=0;whiteSpace=wrap;html=1;" vertex="1" parent="s8CdskTVLuT2yQnBJIG--17">
          <mxGeometry x="30" width="120" height="40" as="geometry" />
        </mxCell>
        <mxCell id="s8CdskTVLuT2yQnBJIG--19" value="5" style="text;html=1;align=center;verticalAlign=middle;resizable=0;points=[];autosize=1;strokeColor=none;fillColor=none;" vertex="1" parent="s8CdskTVLuT2yQnBJIG--17">
          <mxGeometry y="5" width="30" height="30" as="geometry" />
        </mxCell>
        <mxCell id="s8CdskTVLuT2yQnBJIG--20" value="Tamanha = 6" style="text;html=1;align=center;verticalAlign=middle;resizable=0;points=[];autosize=1;strokeColor=none;fillColor=none;" vertex="1" parent="s8CdskTVLuT2yQnBJIG--1">
          <mxGeometry x="35" y="10" width="90" height="30" as="geometry" />
        </mxCell>
        <mxCell id="s8CdskTVLuT2yQnBJIG--21" value="FÃ³rmula hash: %6 (mod)" style="text;html=1;align=center;verticalAlign=middle;resizable=0;points=[];autosize=1;strokeColor=none;fillColor=none;" vertex="1" parent="s8CdskTVLuT2yQnBJIG--1">
          <mxGeometry x="160" y="10" width="160" height="30" as="geometry" />
        </mxCell>
        <mxCell id="s8CdskTVLuT2yQnBJIG--22" value="" style="edgeStyle=orthogonalEdgeStyle;rounded=0;orthogonalLoop=1;jettySize=auto;html=1;" edge="1" parent="s8CdskTVLuT2yQnBJIG--1" source="s8CdskTVLuT2yQnBJIG--23" target="s8CdskTVLuT2yQnBJIG--25">
          <mxGeometry relative="1" as="geometry" />
        </mxCell>
        <mxCell id="s8CdskTVLuT2yQnBJIG--23" value="7" style="whiteSpace=wrap;html=1;rounded=0;" vertex="1" parent="s8CdskTVLuT2yQnBJIG--1">
          <mxGeometry x="320" y="140" width="40" height="40" as="geometry" />
        </mxCell>
        <mxCell id="s8CdskTVLuT2yQnBJIG--24" value="" style="edgeStyle=orthogonalEdgeStyle;rounded=0;orthogonalLoop=1;jettySize=auto;html=1;" edge="1" parent="s8CdskTVLuT2yQnBJIG--1" source="s8CdskTVLuT2yQnBJIG--6" target="s8CdskTVLuT2yQnBJIG--23">
          <mxGeometry relative="1" as="geometry" />
        </mxCell>
        <mxCell id="s8CdskTVLuT2yQnBJIG--25" value="13" style="whiteSpace=wrap;html=1;rounded=0;" vertex="1" parent="s8CdskTVLuT2yQnBJIG--1">
          <mxGeometry x="440" y="140" width="40" height="40" as="geometry" />
        </mxCell>
        <mxCell id="s8CdskTVLuT2yQnBJIG--26" value="21" style="rounded=0;whiteSpace=wrap;html=1;" vertex="1" parent="s8CdskTVLuT2yQnBJIG--1">
          <mxGeometry x="320" y="260" width="40" height="40" as="geometry" />
        </mxCell>
        <mxCell id="s8CdskTVLuT2yQnBJIG--27" value="" style="edgeStyle=orthogonalEdgeStyle;rounded=0;orthogonalLoop=1;jettySize=auto;html=1;" edge="1" parent="s8CdskTVLuT2yQnBJIG--1" source="s8CdskTVLuT2yQnBJIG--15" target="s8CdskTVLuT2yQnBJIG--26">
          <mxGeometry relative="1" as="geometry" />
        </mxCell>
        <mxCell id="s8CdskTVLuT2yQnBJIG--28" value="4" style="rounded=0;whiteSpace=wrap;html=1;" vertex="1" parent="s8CdskTVLuT2yQnBJIG--1">
          <mxGeometry x="320" y="320" width="40" height="40" as="geometry" />
        </mxCell>
        <mxCell id="s8CdskTVLuT2yQnBJIG--29" value="" style="edgeStyle=orthogonalEdgeStyle;rounded=0;orthogonalLoop=1;jettySize=auto;html=1;" edge="1" parent="s8CdskTVLuT2yQnBJIG--1" source="s8CdskTVLuT2yQnBJIG--12" target="s8CdskTVLuT2yQnBJIG--28">
          <mxGeometry relative="1" as="geometry" />
        </mxCell>
        <mxCell id="s8CdskTVLuT2yQnBJIG--30" value="11" style="rounded=0;whiteSpace=wrap;html=1;" vertex="1" parent="s8CdskTVLuT2yQnBJIG--1">
          <mxGeometry x="320" y="380" width="40" height="40" as="geometry" />
        </mxCell>
        <mxCell id="s8CdskTVLuT2yQnBJIG--31" value="" style="edgeStyle=orthogonalEdgeStyle;rounded=0;orthogonalLoop=1;jettySize=auto;html=1;" edge="1" parent="s8CdskTVLuT2yQnBJIG--1" source="s8CdskTVLuT2yQnBJIG--18" target="s8CdskTVLuT2yQnBJIG--30">
          <mxGeometry relative="1" as="geometry" />
        </mxCell>
        <mxCell id="s8CdskTVLuT2yQnBJIG--32" value="RemoÃ§Ã£o" style="text;html=1;align=center;verticalAlign=middle;resizable=0;points=[];autosize=1;strokeColor=none;fillColor=none;" vertex="1" parent="s8CdskTVLuT2yQnBJIG--1">
          <mxGeometry x="350" y="10" width="70" height="30" as="geometry" />
        </mxCell>
        <mxCell id="s8CdskTVLuT2yQnBJIG--33" value="Aux" style="text;html=1;align=center;verticalAlign=middle;resizable=0;points=[];autosize=1;strokeColor=none;fillColor=none;" vertex="1" parent="s8CdskTVLuT2yQnBJIG--1">
          <mxGeometry x="405" y="260" width="40" height="30" as="geometry" />
        </mxCell>
        <mxCell id="s8CdskTVLuT2yQnBJIG--34" value="" style="endArrow=classic;html=1;rounded=0;entryX=0.75;entryY=0;entryDx=0;entryDy=0;exitX=0.275;exitY=1.067;exitDx=0;exitDy=0;exitPerimeter=0;" edge="1" parent="s8CdskTVLuT2yQnBJIG--1" source="s8CdskTVLuT2yQnBJIG--33" target="s8CdskTVLuT2yQnBJIG--28">
          <mxGeometry width="50" height="50" relative="1" as="geometry">
            <mxPoint x="400" y="270" as="sourcePoint" />
            <mxPoint x="450" y="220" as="targetPoint" />
          </mxGeometry>
        </mxCell>
        <mxCell id="9iy7CandPCj7_P7UJRhc-0" value="" style="shape=cross;whiteSpace=wrap;html=1;rotation=45;fillColor=#f8cecc;strokeColor=#b85450;" vertex="1" parent="s8CdskTVLuT2yQnBJIG--1">
          <mxGeometry x="315" y="315" width="50" height="50" as="geometry" />
        </mxCell>
      </root>
    </mxGraphModel>
  </diagram>
  <diagram name="15" id="vgH6jOwJoPln8FBEsxpT">
    <mxGraphModel dx="995" dy="471" grid="1" gridSize="10" guides="1" tooltips="1" connect="1" arrows="1" fold="1" page="1" pageScale="1" pageWidth="850" pageHeight="1100" math="0" shadow="0">
      <root>
        <mxCell id="SnBXguqvfunolyxfK2vd-0" />
        <mxCell id="SnBXguqvfunolyxfK2vd-1" parent="SnBXguqvfunolyxfK2vd-0" />
        <mxCell id="SnBXguqvfunolyxfK2vd-2" value="" style="group" vertex="1" connectable="0" parent="SnBXguqvfunolyxfK2vd-1">
          <mxGeometry x="90" y="80" width="150" height="40" as="geometry" />
        </mxCell>
        <mxCell id="SnBXguqvfunolyxfK2vd-3" value="60" style="rounded=0;whiteSpace=wrap;html=1;" vertex="1" parent="SnBXguqvfunolyxfK2vd-2">
          <mxGeometry x="30" width="120" height="40" as="geometry" />
        </mxCell>
        <mxCell id="SnBXguqvfunolyxfK2vd-4" value="0" style="text;html=1;align=center;verticalAlign=middle;resizable=0;points=[];autosize=1;strokeColor=none;fillColor=none;" vertex="1" parent="SnBXguqvfunolyxfK2vd-2">
          <mxGeometry y="5" width="30" height="30" as="geometry" />
        </mxCell>
        <mxCell id="SnBXguqvfunolyxfK2vd-5" value="" style="group" vertex="1" connectable="0" parent="SnBXguqvfunolyxfK2vd-1">
          <mxGeometry x="90" y="140" width="150" height="40" as="geometry" />
        </mxCell>
        <mxCell id="SnBXguqvfunolyxfK2vd-6" value="49" style="rounded=0;whiteSpace=wrap;html=1;" vertex="1" parent="SnBXguqvfunolyxfK2vd-5">
          <mxGeometry x="30" width="120" height="40" as="geometry" />
        </mxCell>
        <mxCell id="SnBXguqvfunolyxfK2vd-7" value="1" style="text;html=1;align=center;verticalAlign=middle;resizable=0;points=[];autosize=1;strokeColor=none;fillColor=none;" vertex="1" parent="SnBXguqvfunolyxfK2vd-5">
          <mxGeometry y="5" width="30" height="30" as="geometry" />
        </mxCell>
        <mxCell id="SnBXguqvfunolyxfK2vd-8" value="" style="group" vertex="1" connectable="0" parent="SnBXguqvfunolyxfK2vd-1">
          <mxGeometry x="90" y="200" width="150" height="40" as="geometry" />
        </mxCell>
        <mxCell id="SnBXguqvfunolyxfK2vd-9" value="8" style="rounded=0;whiteSpace=wrap;html=1;" vertex="1" parent="SnBXguqvfunolyxfK2vd-8">
          <mxGeometry x="30" width="120" height="40" as="geometry" />
        </mxCell>
        <mxCell id="SnBXguqvfunolyxfK2vd-10" value="2" style="text;html=1;align=center;verticalAlign=middle;resizable=0;points=[];autosize=1;strokeColor=none;fillColor=none;" vertex="1" parent="SnBXguqvfunolyxfK2vd-8">
          <mxGeometry y="5" width="30" height="30" as="geometry" />
        </mxCell>
        <mxCell id="SnBXguqvfunolyxfK2vd-11" value="" style="group" vertex="1" connectable="0" parent="SnBXguqvfunolyxfK2vd-1">
          <mxGeometry x="90" y="320" width="150" height="40" as="geometry" />
        </mxCell>
        <mxCell id="SnBXguqvfunolyxfK2vd-12" value="40" style="rounded=0;whiteSpace=wrap;html=1;" vertex="1" parent="SnBXguqvfunolyxfK2vd-11">
          <mxGeometry x="30" width="120" height="40" as="geometry" />
        </mxCell>
        <mxCell id="SnBXguqvfunolyxfK2vd-13" value="4" style="text;html=1;align=center;verticalAlign=middle;resizable=0;points=[];autosize=1;strokeColor=none;fillColor=none;" vertex="1" parent="SnBXguqvfunolyxfK2vd-11">
          <mxGeometry y="5" width="30" height="30" as="geometry" />
        </mxCell>
        <mxCell id="SnBXguqvfunolyxfK2vd-14" value="" style="group" vertex="1" connectable="0" parent="SnBXguqvfunolyxfK2vd-1">
          <mxGeometry x="90" y="270" width="150" height="40" as="geometry" />
        </mxCell>
        <mxCell id="SnBXguqvfunolyxfK2vd-15" value="33" style="rounded=0;whiteSpace=wrap;html=1;" vertex="1" parent="SnBXguqvfunolyxfK2vd-14">
          <mxGeometry x="30" y="-10" width="120" height="40" as="geometry" />
        </mxCell>
        <mxCell id="SnBXguqvfunolyxfK2vd-16" value="3" style="text;html=1;align=center;verticalAlign=middle;resizable=0;points=[];autosize=1;strokeColor=none;fillColor=none;" vertex="1" parent="SnBXguqvfunolyxfK2vd-14">
          <mxGeometry y="5" width="30" height="30" as="geometry" />
        </mxCell>
        <mxCell id="SnBXguqvfunolyxfK2vd-17" value="" style="group" vertex="1" connectable="0" parent="SnBXguqvfunolyxfK2vd-1">
          <mxGeometry x="90" y="380" width="150" height="40" as="geometry" />
        </mxCell>
        <mxCell id="SnBXguqvfunolyxfK2vd-18" value="5" style="rounded=0;whiteSpace=wrap;html=1;" vertex="1" parent="SnBXguqvfunolyxfK2vd-17">
          <mxGeometry x="30" width="120" height="40" as="geometry" />
        </mxCell>
        <mxCell id="SnBXguqvfunolyxfK2vd-19" value="5" style="text;html=1;align=center;verticalAlign=middle;resizable=0;points=[];autosize=1;strokeColor=none;fillColor=none;" vertex="1" parent="SnBXguqvfunolyxfK2vd-17">
          <mxGeometry y="5" width="30" height="30" as="geometry" />
        </mxCell>
        <mxCell id="SnBXguqvfunolyxfK2vd-20" value="Tamanha = 6" style="text;html=1;align=center;verticalAlign=middle;resizable=0;points=[];autosize=1;strokeColor=none;fillColor=none;" vertex="1" parent="SnBXguqvfunolyxfK2vd-1">
          <mxGeometry x="35" y="10" width="90" height="30" as="geometry" />
        </mxCell>
        <mxCell id="SnBXguqvfunolyxfK2vd-21" value="FÃ³rmula hash: %6 (mod)" style="text;html=1;align=center;verticalAlign=middle;resizable=0;points=[];autosize=1;strokeColor=none;fillColor=none;" vertex="1" parent="SnBXguqvfunolyxfK2vd-1">
          <mxGeometry x="160" y="10" width="160" height="30" as="geometry" />
        </mxCell>
        <mxCell id="SnBXguqvfunolyxfK2vd-22" value="" style="edgeStyle=orthogonalEdgeStyle;rounded=0;orthogonalLoop=1;jettySize=auto;html=1;" edge="1" parent="SnBXguqvfunolyxfK2vd-1" source="SnBXguqvfunolyxfK2vd-23" target="SnBXguqvfunolyxfK2vd-25">
          <mxGeometry relative="1" as="geometry" />
        </mxCell>
        <mxCell id="SnBXguqvfunolyxfK2vd-23" value="7" style="whiteSpace=wrap;html=1;rounded=0;" vertex="1" parent="SnBXguqvfunolyxfK2vd-1">
          <mxGeometry x="320" y="140" width="40" height="40" as="geometry" />
        </mxCell>
        <mxCell id="SnBXguqvfunolyxfK2vd-24" value="" style="edgeStyle=orthogonalEdgeStyle;rounded=0;orthogonalLoop=1;jettySize=auto;html=1;" edge="1" parent="SnBXguqvfunolyxfK2vd-1" source="SnBXguqvfunolyxfK2vd-6" target="SnBXguqvfunolyxfK2vd-23">
          <mxGeometry relative="1" as="geometry" />
        </mxCell>
        <mxCell id="SnBXguqvfunolyxfK2vd-25" value="13" style="whiteSpace=wrap;html=1;rounded=0;" vertex="1" parent="SnBXguqvfunolyxfK2vd-1">
          <mxGeometry x="440" y="140" width="40" height="40" as="geometry" />
        </mxCell>
        <mxCell id="SnBXguqvfunolyxfK2vd-26" value="21" style="rounded=0;whiteSpace=wrap;html=1;" vertex="1" parent="SnBXguqvfunolyxfK2vd-1">
          <mxGeometry x="320" y="260" width="40" height="40" as="geometry" />
        </mxCell>
        <mxCell id="SnBXguqvfunolyxfK2vd-27" value="" style="edgeStyle=orthogonalEdgeStyle;rounded=0;orthogonalLoop=1;jettySize=auto;html=1;" edge="1" parent="SnBXguqvfunolyxfK2vd-1" source="SnBXguqvfunolyxfK2vd-15" target="SnBXguqvfunolyxfK2vd-26">
          <mxGeometry relative="1" as="geometry" />
        </mxCell>
        <mxCell id="SnBXguqvfunolyxfK2vd-30" value="11" style="rounded=0;whiteSpace=wrap;html=1;" vertex="1" parent="SnBXguqvfunolyxfK2vd-1">
          <mxGeometry x="320" y="380" width="40" height="40" as="geometry" />
        </mxCell>
        <mxCell id="SnBXguqvfunolyxfK2vd-31" value="" style="edgeStyle=orthogonalEdgeStyle;rounded=0;orthogonalLoop=1;jettySize=auto;html=1;" edge="1" parent="SnBXguqvfunolyxfK2vd-1" source="SnBXguqvfunolyxfK2vd-18" target="SnBXguqvfunolyxfK2vd-30">
          <mxGeometry relative="1" as="geometry" />
        </mxCell>
        <mxCell id="SnBXguqvfunolyxfK2vd-32" value="RemoÃ§Ã£o" style="text;html=1;align=center;verticalAlign=middle;resizable=0;points=[];autosize=1;strokeColor=none;fillColor=none;" vertex="1" parent="SnBXguqvfunolyxfK2vd-1">
          <mxGeometry x="350" y="10" width="70" height="30" as="geometry" />
        </mxCell>
      </root>
    </mxGraphModel>
  </diagram>
  <diagram name="16" id="-CqV0Vf0oTJU4WG1Z7YO">
    <mxGraphModel dx="995" dy="471" grid="1" gridSize="10" guides="1" tooltips="1" connect="1" arrows="1" fold="1" page="1" pageScale="1" pageWidth="850" pageHeight="1100" math="0" shadow="0">
      <root>
        <mxCell id="i_clyr-tpxK7qfGnRzWm-0" />
        <mxCell id="i_clyr-tpxK7qfGnRzWm-1" parent="i_clyr-tpxK7qfGnRzWm-0" />
        <mxCell id="i_clyr-tpxK7qfGnRzWm-2" value="" style="group" vertex="1" connectable="0" parent="i_clyr-tpxK7qfGnRzWm-1">
          <mxGeometry x="90" y="80" width="150" height="40" as="geometry" />
        </mxCell>
        <mxCell id="i_clyr-tpxK7qfGnRzWm-3" value="60" style="rounded=0;whiteSpace=wrap;html=1;" vertex="1" parent="i_clyr-tpxK7qfGnRzWm-2">
          <mxGeometry x="30" width="120" height="40" as="geometry" />
        </mxCell>
        <mxCell id="i_clyr-tpxK7qfGnRzWm-4" value="0" style="text;html=1;align=center;verticalAlign=middle;resizable=0;points=[];autosize=1;strokeColor=none;fillColor=none;" vertex="1" parent="i_clyr-tpxK7qfGnRzWm-2">
          <mxGeometry y="5" width="30" height="30" as="geometry" />
        </mxCell>
        <mxCell id="i_clyr-tpxK7qfGnRzWm-5" value="" style="group" vertex="1" connectable="0" parent="i_clyr-tpxK7qfGnRzWm-1">
          <mxGeometry x="90" y="140" width="150" height="40" as="geometry" />
        </mxCell>
        <mxCell id="i_clyr-tpxK7qfGnRzWm-6" value="49" style="rounded=0;whiteSpace=wrap;html=1;" vertex="1" parent="i_clyr-tpxK7qfGnRzWm-5">
          <mxGeometry x="30" width="120" height="40" as="geometry" />
        </mxCell>
        <mxCell id="i_clyr-tpxK7qfGnRzWm-7" value="1" style="text;html=1;align=center;verticalAlign=middle;resizable=0;points=[];autosize=1;strokeColor=none;fillColor=none;" vertex="1" parent="i_clyr-tpxK7qfGnRzWm-5">
          <mxGeometry y="5" width="30" height="30" as="geometry" />
        </mxCell>
        <mxCell id="i_clyr-tpxK7qfGnRzWm-8" value="" style="group" vertex="1" connectable="0" parent="i_clyr-tpxK7qfGnRzWm-1">
          <mxGeometry x="90" y="200" width="150" height="40" as="geometry" />
        </mxCell>
        <mxCell id="i_clyr-tpxK7qfGnRzWm-9" value="8" style="rounded=0;whiteSpace=wrap;html=1;" vertex="1" parent="i_clyr-tpxK7qfGnRzWm-8">
          <mxGeometry x="30" width="120" height="40" as="geometry" />
        </mxCell>
        <mxCell id="i_clyr-tpxK7qfGnRzWm-10" value="2" style="text;html=1;align=center;verticalAlign=middle;resizable=0;points=[];autosize=1;strokeColor=none;fillColor=none;" vertex="1" parent="i_clyr-tpxK7qfGnRzWm-8">
          <mxGeometry y="5" width="30" height="30" as="geometry" />
        </mxCell>
        <mxCell id="i_clyr-tpxK7qfGnRzWm-11" value="" style="group" vertex="1" connectable="0" parent="i_clyr-tpxK7qfGnRzWm-1">
          <mxGeometry x="90" y="320" width="150" height="40" as="geometry" />
        </mxCell>
        <mxCell id="i_clyr-tpxK7qfGnRzWm-12" value="40" style="rounded=0;whiteSpace=wrap;html=1;" vertex="1" parent="i_clyr-tpxK7qfGnRzWm-11">
          <mxGeometry x="30" width="120" height="40" as="geometry" />
        </mxCell>
        <mxCell id="i_clyr-tpxK7qfGnRzWm-13" value="4" style="text;html=1;align=center;verticalAlign=middle;resizable=0;points=[];autosize=1;strokeColor=none;fillColor=none;" vertex="1" parent="i_clyr-tpxK7qfGnRzWm-11">
          <mxGeometry y="5" width="30" height="30" as="geometry" />
        </mxCell>
        <mxCell id="i_clyr-tpxK7qfGnRzWm-14" value="" style="group" vertex="1" connectable="0" parent="i_clyr-tpxK7qfGnRzWm-1">
          <mxGeometry x="90" y="270" width="150" height="40" as="geometry" />
        </mxCell>
        <mxCell id="i_clyr-tpxK7qfGnRzWm-15" value="33" style="rounded=0;whiteSpace=wrap;html=1;" vertex="1" parent="i_clyr-tpxK7qfGnRzWm-14">
          <mxGeometry x="30" y="-10" width="120" height="40" as="geometry" />
        </mxCell>
        <mxCell id="i_clyr-tpxK7qfGnRzWm-16" value="3" style="text;html=1;align=center;verticalAlign=middle;resizable=0;points=[];autosize=1;strokeColor=none;fillColor=none;" vertex="1" parent="i_clyr-tpxK7qfGnRzWm-14">
          <mxGeometry y="5" width="30" height="30" as="geometry" />
        </mxCell>
        <mxCell id="i_clyr-tpxK7qfGnRzWm-17" value="" style="group" vertex="1" connectable="0" parent="i_clyr-tpxK7qfGnRzWm-1">
          <mxGeometry x="90" y="380" width="150" height="40" as="geometry" />
        </mxCell>
        <mxCell id="i_clyr-tpxK7qfGnRzWm-18" value="5" style="rounded=0;whiteSpace=wrap;html=1;" vertex="1" parent="i_clyr-tpxK7qfGnRzWm-17">
          <mxGeometry x="30" width="120" height="40" as="geometry" />
        </mxCell>
        <mxCell id="i_clyr-tpxK7qfGnRzWm-19" value="5" style="text;html=1;align=center;verticalAlign=middle;resizable=0;points=[];autosize=1;strokeColor=none;fillColor=none;" vertex="1" parent="i_clyr-tpxK7qfGnRzWm-17">
          <mxGeometry y="5" width="30" height="30" as="geometry" />
        </mxCell>
        <mxCell id="i_clyr-tpxK7qfGnRzWm-20" value="Tamanha = 6" style="text;html=1;align=center;verticalAlign=middle;resizable=0;points=[];autosize=1;strokeColor=none;fillColor=none;" vertex="1" parent="i_clyr-tpxK7qfGnRzWm-1">
          <mxGeometry x="35" y="10" width="90" height="30" as="geometry" />
        </mxCell>
        <mxCell id="i_clyr-tpxK7qfGnRzWm-21" value="FÃ³rmula hash: %6 (mod)" style="text;html=1;align=center;verticalAlign=middle;resizable=0;points=[];autosize=1;strokeColor=none;fillColor=none;" vertex="1" parent="i_clyr-tpxK7qfGnRzWm-1">
          <mxGeometry x="160" y="10" width="160" height="30" as="geometry" />
        </mxCell>
        <mxCell id="i_clyr-tpxK7qfGnRzWm-22" value="" style="edgeStyle=orthogonalEdgeStyle;rounded=0;orthogonalLoop=1;jettySize=auto;html=1;" edge="1" parent="i_clyr-tpxK7qfGnRzWm-1" source="i_clyr-tpxK7qfGnRzWm-23" target="i_clyr-tpxK7qfGnRzWm-25">
          <mxGeometry relative="1" as="geometry" />
        </mxCell>
        <mxCell id="i_clyr-tpxK7qfGnRzWm-23" value="7" style="whiteSpace=wrap;html=1;rounded=0;" vertex="1" parent="i_clyr-tpxK7qfGnRzWm-1">
          <mxGeometry x="320" y="140" width="40" height="40" as="geometry" />
        </mxCell>
        <mxCell id="i_clyr-tpxK7qfGnRzWm-24" value="" style="edgeStyle=orthogonalEdgeStyle;rounded=0;orthogonalLoop=1;jettySize=auto;html=1;" edge="1" parent="i_clyr-tpxK7qfGnRzWm-1" source="i_clyr-tpxK7qfGnRzWm-6" target="i_clyr-tpxK7qfGnRzWm-23">
          <mxGeometry relative="1" as="geometry" />
        </mxCell>
        <mxCell id="i_clyr-tpxK7qfGnRzWm-25" value="13" style="whiteSpace=wrap;html=1;rounded=0;" vertex="1" parent="i_clyr-tpxK7qfGnRzWm-1">
          <mxGeometry x="440" y="140" width="40" height="40" as="geometry" />
        </mxCell>
        <mxCell id="i_clyr-tpxK7qfGnRzWm-26" value="21" style="rounded=0;whiteSpace=wrap;html=1;" vertex="1" parent="i_clyr-tpxK7qfGnRzWm-1">
          <mxGeometry x="320" y="260" width="40" height="40" as="geometry" />
        </mxCell>
        <mxCell id="i_clyr-tpxK7qfGnRzWm-27" value="" style="edgeStyle=orthogonalEdgeStyle;rounded=0;orthogonalLoop=1;jettySize=auto;html=1;" edge="1" parent="i_clyr-tpxK7qfGnRzWm-1" source="i_clyr-tpxK7qfGnRzWm-15" target="i_clyr-tpxK7qfGnRzWm-26">
          <mxGeometry relative="1" as="geometry" />
        </mxCell>
        <mxCell id="i_clyr-tpxK7qfGnRzWm-28" value="11" style="rounded=0;whiteSpace=wrap;html=1;" vertex="1" parent="i_clyr-tpxK7qfGnRzWm-1">
          <mxGeometry x="320" y="380" width="40" height="40" as="geometry" />
        </mxCell>
        <mxCell id="i_clyr-tpxK7qfGnRzWm-29" value="" style="edgeStyle=orthogonalEdgeStyle;rounded=0;orthogonalLoop=1;jettySize=auto;html=1;" edge="1" parent="i_clyr-tpxK7qfGnRzWm-1" source="i_clyr-tpxK7qfGnRzWm-18" target="i_clyr-tpxK7qfGnRzWm-28">
          <mxGeometry relative="1" as="geometry" />
        </mxCell>
        <mxCell id="i_clyr-tpxK7qfGnRzWm-30" value="RemoÃ§Ã£o" style="text;html=1;align=center;verticalAlign=middle;resizable=0;points=[];autosize=1;strokeColor=none;fillColor=none;" vertex="1" parent="i_clyr-tpxK7qfGnRzWm-1">
          <mxGeometry x="350" y="10" width="70" height="30" as="geometry" />
        </mxCell>
        <mxCell id="CIlBgrYMM_bz3pvKTVJN-0" value="Aux" style="text;html=1;align=center;verticalAlign=middle;resizable=0;points=[];autosize=1;strokeColor=none;fillColor=none;" vertex="1" parent="i_clyr-tpxK7qfGnRzWm-1">
          <mxGeometry x="405" y="320" width="40" height="30" as="geometry" />
        </mxCell>
        <mxCell id="SAm6cCQAS3g5CFRNNQZt-0" value="" style="endArrow=classic;html=1;rounded=0;entryX=0.75;entryY=0;entryDx=0;entryDy=0;exitX=0.25;exitY=1.133;exitDx=0;exitDy=0;exitPerimeter=0;" edge="1" parent="i_clyr-tpxK7qfGnRzWm-1" source="CIlBgrYMM_bz3pvKTVJN-0" target="i_clyr-tpxK7qfGnRzWm-28">
          <mxGeometry width="50" height="50" relative="1" as="geometry">
            <mxPoint x="416" y="292" as="sourcePoint" />
            <mxPoint x="350" y="320" as="targetPoint" />
          </mxGeometry>
        </mxCell>
      </root>
    </mxGraphModel>
  </diagram>
  <diagram name="17" id="LAd0LxbxvIhypFKcLxCY">
    <mxGraphModel dx="995" dy="471" grid="1" gridSize="10" guides="1" tooltips="1" connect="1" arrows="1" fold="1" page="1" pageScale="1" pageWidth="850" pageHeight="1100" math="0" shadow="0">
      <root>
        <mxCell id="fb3N5izmQPQ8C2fYka4d-0" />
        <mxCell id="fb3N5izmQPQ8C2fYka4d-1" parent="fb3N5izmQPQ8C2fYka4d-0" />
        <mxCell id="fb3N5izmQPQ8C2fYka4d-2" value="" style="group" vertex="1" connectable="0" parent="fb3N5izmQPQ8C2fYka4d-1">
          <mxGeometry x="90" y="80" width="150" height="40" as="geometry" />
        </mxCell>
        <mxCell id="fb3N5izmQPQ8C2fYka4d-3" value="60" style="rounded=0;whiteSpace=wrap;html=1;" vertex="1" parent="fb3N5izmQPQ8C2fYka4d-2">
          <mxGeometry x="30" width="120" height="40" as="geometry" />
        </mxCell>
        <mxCell id="fb3N5izmQPQ8C2fYka4d-4" value="0" style="text;html=1;align=center;verticalAlign=middle;resizable=0;points=[];autosize=1;strokeColor=none;fillColor=none;" vertex="1" parent="fb3N5izmQPQ8C2fYka4d-2">
          <mxGeometry y="5" width="30" height="30" as="geometry" />
        </mxCell>
        <mxCell id="fb3N5izmQPQ8C2fYka4d-5" value="" style="group" vertex="1" connectable="0" parent="fb3N5izmQPQ8C2fYka4d-1">
          <mxGeometry x="90" y="140" width="150" height="40" as="geometry" />
        </mxCell>
        <mxCell id="fb3N5izmQPQ8C2fYka4d-6" value="49" style="rounded=0;whiteSpace=wrap;html=1;" vertex="1" parent="fb3N5izmQPQ8C2fYka4d-5">
          <mxGeometry x="30" width="120" height="40" as="geometry" />
        </mxCell>
        <mxCell id="fb3N5izmQPQ8C2fYka4d-7" value="1" style="text;html=1;align=center;verticalAlign=middle;resizable=0;points=[];autosize=1;strokeColor=none;fillColor=none;" vertex="1" parent="fb3N5izmQPQ8C2fYka4d-5">
          <mxGeometry y="5" width="30" height="30" as="geometry" />
        </mxCell>
        <mxCell id="fb3N5izmQPQ8C2fYka4d-8" value="" style="group" vertex="1" connectable="0" parent="fb3N5izmQPQ8C2fYka4d-1">
          <mxGeometry x="90" y="200" width="150" height="40" as="geometry" />
        </mxCell>
        <mxCell id="fb3N5izmQPQ8C2fYka4d-9" value="8" style="rounded=0;whiteSpace=wrap;html=1;" vertex="1" parent="fb3N5izmQPQ8C2fYka4d-8">
          <mxGeometry x="30" width="120" height="40" as="geometry" />
        </mxCell>
        <mxCell id="fb3N5izmQPQ8C2fYka4d-10" value="2" style="text;html=1;align=center;verticalAlign=middle;resizable=0;points=[];autosize=1;strokeColor=none;fillColor=none;" vertex="1" parent="fb3N5izmQPQ8C2fYka4d-8">
          <mxGeometry y="5" width="30" height="30" as="geometry" />
        </mxCell>
        <mxCell id="fb3N5izmQPQ8C2fYka4d-11" value="" style="group" vertex="1" connectable="0" parent="fb3N5izmQPQ8C2fYka4d-1">
          <mxGeometry x="90" y="320" width="150" height="40" as="geometry" />
        </mxCell>
        <mxCell id="fb3N5izmQPQ8C2fYka4d-12" value="40" style="rounded=0;whiteSpace=wrap;html=1;" vertex="1" parent="fb3N5izmQPQ8C2fYka4d-11">
          <mxGeometry x="30" width="120" height="40" as="geometry" />
        </mxCell>
        <mxCell id="fb3N5izmQPQ8C2fYka4d-13" value="4" style="text;html=1;align=center;verticalAlign=middle;resizable=0;points=[];autosize=1;strokeColor=none;fillColor=none;" vertex="1" parent="fb3N5izmQPQ8C2fYka4d-11">
          <mxGeometry y="5" width="30" height="30" as="geometry" />
        </mxCell>
        <mxCell id="fb3N5izmQPQ8C2fYka4d-14" value="" style="group" vertex="1" connectable="0" parent="fb3N5izmQPQ8C2fYka4d-1">
          <mxGeometry x="90" y="270" width="150" height="40" as="geometry" />
        </mxCell>
        <mxCell id="fb3N5izmQPQ8C2fYka4d-15" value="33" style="rounded=0;whiteSpace=wrap;html=1;" vertex="1" parent="fb3N5izmQPQ8C2fYka4d-14">
          <mxGeometry x="30" y="-10" width="120" height="40" as="geometry" />
        </mxCell>
        <mxCell id="fb3N5izmQPQ8C2fYka4d-16" value="3" style="text;html=1;align=center;verticalAlign=middle;resizable=0;points=[];autosize=1;strokeColor=none;fillColor=none;" vertex="1" parent="fb3N5izmQPQ8C2fYka4d-14">
          <mxGeometry y="5" width="30" height="30" as="geometry" />
        </mxCell>
        <mxCell id="fb3N5izmQPQ8C2fYka4d-17" value="" style="group" vertex="1" connectable="0" parent="fb3N5izmQPQ8C2fYka4d-1">
          <mxGeometry x="90" y="380" width="150" height="40" as="geometry" />
        </mxCell>
        <mxCell id="fb3N5izmQPQ8C2fYka4d-18" value="5" style="rounded=0;whiteSpace=wrap;html=1;" vertex="1" parent="fb3N5izmQPQ8C2fYka4d-17">
          <mxGeometry x="30" width="120" height="40" as="geometry" />
        </mxCell>
        <mxCell id="fb3N5izmQPQ8C2fYka4d-19" value="5" style="text;html=1;align=center;verticalAlign=middle;resizable=0;points=[];autosize=1;strokeColor=none;fillColor=none;" vertex="1" parent="fb3N5izmQPQ8C2fYka4d-17">
          <mxGeometry y="5" width="30" height="30" as="geometry" />
        </mxCell>
        <mxCell id="fb3N5izmQPQ8C2fYka4d-20" value="Tamanha = 6" style="text;html=1;align=center;verticalAlign=middle;resizable=0;points=[];autosize=1;strokeColor=none;fillColor=none;" vertex="1" parent="fb3N5izmQPQ8C2fYka4d-1">
          <mxGeometry x="35" y="10" width="90" height="30" as="geometry" />
        </mxCell>
        <mxCell id="fb3N5izmQPQ8C2fYka4d-21" value="FÃ³rmula hash: %6 (mod)" style="text;html=1;align=center;verticalAlign=middle;resizable=0;points=[];autosize=1;strokeColor=none;fillColor=none;" vertex="1" parent="fb3N5izmQPQ8C2fYka4d-1">
          <mxGeometry x="160" y="10" width="160" height="30" as="geometry" />
        </mxCell>
        <mxCell id="fb3N5izmQPQ8C2fYka4d-22" value="" style="edgeStyle=orthogonalEdgeStyle;rounded=0;orthogonalLoop=1;jettySize=auto;html=1;" edge="1" parent="fb3N5izmQPQ8C2fYka4d-1" source="fb3N5izmQPQ8C2fYka4d-23" target="fb3N5izmQPQ8C2fYka4d-25">
          <mxGeometry relative="1" as="geometry" />
        </mxCell>
        <mxCell id="fb3N5izmQPQ8C2fYka4d-23" value="7" style="whiteSpace=wrap;html=1;rounded=0;" vertex="1" parent="fb3N5izmQPQ8C2fYka4d-1">
          <mxGeometry x="320" y="140" width="40" height="40" as="geometry" />
        </mxCell>
        <mxCell id="fb3N5izmQPQ8C2fYka4d-24" value="" style="edgeStyle=orthogonalEdgeStyle;rounded=0;orthogonalLoop=1;jettySize=auto;html=1;" edge="1" parent="fb3N5izmQPQ8C2fYka4d-1" source="fb3N5izmQPQ8C2fYka4d-6" target="fb3N5izmQPQ8C2fYka4d-23">
          <mxGeometry relative="1" as="geometry" />
        </mxCell>
        <mxCell id="fb3N5izmQPQ8C2fYka4d-25" value="13" style="whiteSpace=wrap;html=1;rounded=0;" vertex="1" parent="fb3N5izmQPQ8C2fYka4d-1">
          <mxGeometry x="440" y="140" width="40" height="40" as="geometry" />
        </mxCell>
        <mxCell id="fb3N5izmQPQ8C2fYka4d-26" value="21" style="rounded=0;whiteSpace=wrap;html=1;" vertex="1" parent="fb3N5izmQPQ8C2fYka4d-1">
          <mxGeometry x="320" y="260" width="40" height="40" as="geometry" />
        </mxCell>
        <mxCell id="fb3N5izmQPQ8C2fYka4d-27" value="" style="edgeStyle=orthogonalEdgeStyle;rounded=0;orthogonalLoop=1;jettySize=auto;html=1;" edge="1" parent="fb3N5izmQPQ8C2fYka4d-1" source="fb3N5izmQPQ8C2fYka4d-15" target="fb3N5izmQPQ8C2fYka4d-26">
          <mxGeometry relative="1" as="geometry" />
        </mxCell>
        <mxCell id="fb3N5izmQPQ8C2fYka4d-28" value="11" style="rounded=0;whiteSpace=wrap;html=1;" vertex="1" parent="fb3N5izmQPQ8C2fYka4d-1">
          <mxGeometry x="320" y="380" width="40" height="40" as="geometry" />
        </mxCell>
        <mxCell id="fb3N5izmQPQ8C2fYka4d-29" value="" style="edgeStyle=orthogonalEdgeStyle;rounded=0;orthogonalLoop=1;jettySize=auto;html=1;" edge="1" parent="fb3N5izmQPQ8C2fYka4d-1" source="fb3N5izmQPQ8C2fYka4d-18" target="fb3N5izmQPQ8C2fYka4d-28">
          <mxGeometry relative="1" as="geometry" />
        </mxCell>
        <mxCell id="fb3N5izmQPQ8C2fYka4d-30" value="RemoÃ§Ã£o" style="text;html=1;align=center;verticalAlign=middle;resizable=0;points=[];autosize=1;strokeColor=none;fillColor=none;" vertex="1" parent="fb3N5izmQPQ8C2fYka4d-1">
          <mxGeometry x="350" y="10" width="70" height="30" as="geometry" />
        </mxCell>
        <mxCell id="fb3N5izmQPQ8C2fYka4d-31" value="Aux" style="text;html=1;align=center;verticalAlign=middle;resizable=0;points=[];autosize=1;strokeColor=none;fillColor=none;" vertex="1" parent="fb3N5izmQPQ8C2fYka4d-1">
          <mxGeometry x="405" y="320" width="40" height="30" as="geometry" />
        </mxCell>
        <mxCell id="fb3N5izmQPQ8C2fYka4d-32" value="" style="endArrow=classic;html=1;rounded=0;entryX=0.75;entryY=0;entryDx=0;entryDy=0;exitX=0.25;exitY=1.133;exitDx=0;exitDy=0;exitPerimeter=0;" edge="1" parent="fb3N5izmQPQ8C2fYka4d-1" source="fb3N5izmQPQ8C2fYka4d-31" target="fb3N5izmQPQ8C2fYka4d-28">
          <mxGeometry width="50" height="50" relative="1" as="geometry">
            <mxPoint x="416" y="292" as="sourcePoint" />
            <mxPoint x="350" y="320" as="targetPoint" />
          </mxGeometry>
        </mxCell>
        <mxCell id="bv3tMckww0iznZEa5SKR-0" value="" style="shape=cross;whiteSpace=wrap;html=1;rotation=45;fillColor=#f8cecc;strokeColor=#b85450;" vertex="1" parent="fb3N5izmQPQ8C2fYka4d-1">
          <mxGeometry x="315" y="375" width="50" height="50" as="geometry" />
        </mxCell>
      </root>
    </mxGraphModel>
  </diagram>
  <diagram name="18" id="G-Zmq7RZcnDZBafSInyK">
    <mxGraphModel dx="995" dy="471" grid="1" gridSize="10" guides="1" tooltips="1" connect="1" arrows="1" fold="1" page="1" pageScale="1" pageWidth="850" pageHeight="1100" math="0" shadow="0">
      <root>
        <mxCell id="EHwv3wI2wRfi9iTudKJX-0" />
        <mxCell id="EHwv3wI2wRfi9iTudKJX-1" parent="EHwv3wI2wRfi9iTudKJX-0" />
        <mxCell id="EHwv3wI2wRfi9iTudKJX-2" value="" style="group" vertex="1" connectable="0" parent="EHwv3wI2wRfi9iTudKJX-1">
          <mxGeometry x="90" y="80" width="150" height="40" as="geometry" />
        </mxCell>
        <mxCell id="EHwv3wI2wRfi9iTudKJX-3" value="60" style="rounded=0;whiteSpace=wrap;html=1;" vertex="1" parent="EHwv3wI2wRfi9iTudKJX-2">
          <mxGeometry x="30" width="120" height="40" as="geometry" />
        </mxCell>
        <mxCell id="EHwv3wI2wRfi9iTudKJX-4" value="0" style="text;html=1;align=center;verticalAlign=middle;resizable=0;points=[];autosize=1;strokeColor=none;fillColor=none;" vertex="1" parent="EHwv3wI2wRfi9iTudKJX-2">
          <mxGeometry y="5" width="30" height="30" as="geometry" />
        </mxCell>
        <mxCell id="EHwv3wI2wRfi9iTudKJX-5" value="" style="group" vertex="1" connectable="0" parent="EHwv3wI2wRfi9iTudKJX-1">
          <mxGeometry x="90" y="140" width="150" height="40" as="geometry" />
        </mxCell>
        <mxCell id="EHwv3wI2wRfi9iTudKJX-6" value="49" style="rounded=0;whiteSpace=wrap;html=1;" vertex="1" parent="EHwv3wI2wRfi9iTudKJX-5">
          <mxGeometry x="30" width="120" height="40" as="geometry" />
        </mxCell>
        <mxCell id="EHwv3wI2wRfi9iTudKJX-7" value="1" style="text;html=1;align=center;verticalAlign=middle;resizable=0;points=[];autosize=1;strokeColor=none;fillColor=none;" vertex="1" parent="EHwv3wI2wRfi9iTudKJX-5">
          <mxGeometry y="5" width="30" height="30" as="geometry" />
        </mxCell>
        <mxCell id="EHwv3wI2wRfi9iTudKJX-8" value="" style="group" vertex="1" connectable="0" parent="EHwv3wI2wRfi9iTudKJX-1">
          <mxGeometry x="90" y="200" width="150" height="40" as="geometry" />
        </mxCell>
        <mxCell id="EHwv3wI2wRfi9iTudKJX-9" value="8" style="rounded=0;whiteSpace=wrap;html=1;" vertex="1" parent="EHwv3wI2wRfi9iTudKJX-8">
          <mxGeometry x="30" width="120" height="40" as="geometry" />
        </mxCell>
        <mxCell id="EHwv3wI2wRfi9iTudKJX-10" value="2" style="text;html=1;align=center;verticalAlign=middle;resizable=0;points=[];autosize=1;strokeColor=none;fillColor=none;" vertex="1" parent="EHwv3wI2wRfi9iTudKJX-8">
          <mxGeometry y="5" width="30" height="30" as="geometry" />
        </mxCell>
        <mxCell id="EHwv3wI2wRfi9iTudKJX-11" value="" style="group" vertex="1" connectable="0" parent="EHwv3wI2wRfi9iTudKJX-1">
          <mxGeometry x="90" y="320" width="150" height="40" as="geometry" />
        </mxCell>
        <mxCell id="EHwv3wI2wRfi9iTudKJX-12" value="40" style="rounded=0;whiteSpace=wrap;html=1;" vertex="1" parent="EHwv3wI2wRfi9iTudKJX-11">
          <mxGeometry x="30" width="120" height="40" as="geometry" />
        </mxCell>
        <mxCell id="EHwv3wI2wRfi9iTudKJX-13" value="4" style="text;html=1;align=center;verticalAlign=middle;resizable=0;points=[];autosize=1;strokeColor=none;fillColor=none;" vertex="1" parent="EHwv3wI2wRfi9iTudKJX-11">
          <mxGeometry y="5" width="30" height="30" as="geometry" />
        </mxCell>
        <mxCell id="EHwv3wI2wRfi9iTudKJX-14" value="" style="group" vertex="1" connectable="0" parent="EHwv3wI2wRfi9iTudKJX-1">
          <mxGeometry x="90" y="270" width="150" height="40" as="geometry" />
        </mxCell>
        <mxCell id="EHwv3wI2wRfi9iTudKJX-15" value="33" style="rounded=0;whiteSpace=wrap;html=1;" vertex="1" parent="EHwv3wI2wRfi9iTudKJX-14">
          <mxGeometry x="30" y="-10" width="120" height="40" as="geometry" />
        </mxCell>
        <mxCell id="EHwv3wI2wRfi9iTudKJX-16" value="3" style="text;html=1;align=center;verticalAlign=middle;resizable=0;points=[];autosize=1;strokeColor=none;fillColor=none;" vertex="1" parent="EHwv3wI2wRfi9iTudKJX-14">
          <mxGeometry y="5" width="30" height="30" as="geometry" />
        </mxCell>
        <mxCell id="EHwv3wI2wRfi9iTudKJX-17" value="" style="group" vertex="1" connectable="0" parent="EHwv3wI2wRfi9iTudKJX-1">
          <mxGeometry x="90" y="380" width="150" height="40" as="geometry" />
        </mxCell>
        <mxCell id="EHwv3wI2wRfi9iTudKJX-18" value="5" style="rounded=0;whiteSpace=wrap;html=1;" vertex="1" parent="EHwv3wI2wRfi9iTudKJX-17">
          <mxGeometry x="30" width="120" height="40" as="geometry" />
        </mxCell>
        <mxCell id="EHwv3wI2wRfi9iTudKJX-19" value="5" style="text;html=1;align=center;verticalAlign=middle;resizable=0;points=[];autosize=1;strokeColor=none;fillColor=none;" vertex="1" parent="EHwv3wI2wRfi9iTudKJX-17">
          <mxGeometry y="5" width="30" height="30" as="geometry" />
        </mxCell>
        <mxCell id="EHwv3wI2wRfi9iTudKJX-20" value="Tamanha = 6" style="text;html=1;align=center;verticalAlign=middle;resizable=0;points=[];autosize=1;strokeColor=none;fillColor=none;" vertex="1" parent="EHwv3wI2wRfi9iTudKJX-1">
          <mxGeometry x="35" y="10" width="90" height="30" as="geometry" />
        </mxCell>
        <mxCell id="EHwv3wI2wRfi9iTudKJX-21" value="FÃ³rmula hash: %6 (mod)" style="text;html=1;align=center;verticalAlign=middle;resizable=0;points=[];autosize=1;strokeColor=none;fillColor=none;" vertex="1" parent="EHwv3wI2wRfi9iTudKJX-1">
          <mxGeometry x="160" y="10" width="160" height="30" as="geometry" />
        </mxCell>
        <mxCell id="EHwv3wI2wRfi9iTudKJX-22" value="" style="edgeStyle=orthogonalEdgeStyle;rounded=0;orthogonalLoop=1;jettySize=auto;html=1;" edge="1" parent="EHwv3wI2wRfi9iTudKJX-1" source="EHwv3wI2wRfi9iTudKJX-23" target="EHwv3wI2wRfi9iTudKJX-25">
          <mxGeometry relative="1" as="geometry" />
        </mxCell>
        <mxCell id="EHwv3wI2wRfi9iTudKJX-23" value="7" style="whiteSpace=wrap;html=1;rounded=0;" vertex="1" parent="EHwv3wI2wRfi9iTudKJX-1">
          <mxGeometry x="320" y="140" width="40" height="40" as="geometry" />
        </mxCell>
        <mxCell id="EHwv3wI2wRfi9iTudKJX-24" value="" style="edgeStyle=orthogonalEdgeStyle;rounded=0;orthogonalLoop=1;jettySize=auto;html=1;" edge="1" parent="EHwv3wI2wRfi9iTudKJX-1" source="EHwv3wI2wRfi9iTudKJX-6" target="EHwv3wI2wRfi9iTudKJX-23">
          <mxGeometry relative="1" as="geometry" />
        </mxCell>
        <mxCell id="EHwv3wI2wRfi9iTudKJX-25" value="13" style="whiteSpace=wrap;html=1;rounded=0;" vertex="1" parent="EHwv3wI2wRfi9iTudKJX-1">
          <mxGeometry x="440" y="140" width="40" height="40" as="geometry" />
        </mxCell>
        <mxCell id="EHwv3wI2wRfi9iTudKJX-26" value="21" style="rounded=0;whiteSpace=wrap;html=1;" vertex="1" parent="EHwv3wI2wRfi9iTudKJX-1">
          <mxGeometry x="320" y="260" width="40" height="40" as="geometry" />
        </mxCell>
        <mxCell id="EHwv3wI2wRfi9iTudKJX-27" value="" style="edgeStyle=orthogonalEdgeStyle;rounded=0;orthogonalLoop=1;jettySize=auto;html=1;" edge="1" parent="EHwv3wI2wRfi9iTudKJX-1" source="EHwv3wI2wRfi9iTudKJX-15" target="EHwv3wI2wRfi9iTudKJX-26">
          <mxGeometry relative="1" as="geometry" />
        </mxCell>
        <mxCell id="EHwv3wI2wRfi9iTudKJX-30" value="RemoÃ§Ã£o" style="text;html=1;align=center;verticalAlign=middle;resizable=0;points=[];autosize=1;strokeColor=none;fillColor=none;" vertex="1" parent="EHwv3wI2wRfi9iTudKJX-1">
          <mxGeometry x="350" y="10" width="70" height="30" as="geometry" />
        </mxCell>
      </root>
    </mxGraphModel>
  </diagram>
</mxfile>
